<?xml version="1.0" encoding="us-ascii" standalone="no"?><svg xmlns="http://www.w3.org/2000/svg" xmlns:xlink="http://www.w3.org/1999/xlink" contentStyleType="text/css" height="1090px" preserveAspectRatio="none" style="width:3266px;height:1090px;background:#FFFFFF;" version="1.1" viewBox="0 0 3266 1090" width="3266px" zoomAndPan="magnify"><defs/><g><!--cluster flutter_fms::screens::history::history_screen--><g id="cluster_flutter_fms::screens::history::history_screen"><path d="M614.5,252.42 L923.5,252.42 A3.75,3.75 0 0 1 926,254.92 L933,274.9083 L1295.5,274.9083 A2.5,2.5 0 0 1 1298,277.4083 L1298,563.27 A2.5,2.5 0 0 1 1295.5,565.77 L614.5,565.77 A2.5,2.5 0 0 1 612,563.27 L612,254.92 A2.5,2.5 0 0 1 614.5,252.42 " fill="none" style="stroke:#000000;stroke-width:1.5;"/><line style="stroke:#000000;stroke-width:1.5;" x1="612" x2="933" y1="274.9083" y2="274.9083"/><text fill="#000000" font-family="sans-serif" font-size="14" font-weight="bold" lengthAdjust="spacing" textLength="308" x="616" y="267.9552">flutter_fms::screens::history::history_screen</text></g><!--cluster flutter::src::widgets::framework--><g id="cluster_flutter::src::widgets::framework"><path d="M1075.5,6 L1296.5,6 A3.75,3.75 0 0 1 1299,8.5 L1306,28.4883 L1306.5,28.4883 A2.5,2.5 0 0 1 1309,30.9883 L1309,110.5 A2.5,2.5 0 0 1 1306.5,113 L1075.5,113 A2.5,2.5 0 0 1 1073,110.5 L1073,8.5 A2.5,2.5 0 0 1 1075.5,6 " fill="none" style="stroke:#000000;stroke-width:1.5;"/><line style="stroke:#000000;stroke-width:1.5;" x1="1073" x2="1306" y1="28.4883" y2="28.4883"/><text fill="#000000" font-family="sans-serif" font-size="14" font-weight="bold" lengthAdjust="spacing" textLength="220" x="1077" y="21.5352">flutter::src::widgets::framework</text></g><!--cluster flutter_fms::services::firestore_service--><g id="cluster_flutter_fms::services::firestore_service"><path d="M224.5,705.19 L495.5,705.19 A3.75,3.75 0 0 1 498,707.69 L505,727.6783 L829.5,727.6783 A2.5,2.5 0 0 1 832,730.1783 L832,950.08 A2.5,2.5 0 0 1 829.5,952.58 L224.5,952.58 A2.5,2.5 0 0 1 222,950.08 L222,707.69 A2.5,2.5 0 0 1 224.5,705.19 " fill="none" style="stroke:#000000;stroke-width:1.5;"/><line style="stroke:#000000;stroke-width:1.5;" x1="222" x2="505" y1="727.6783" y2="727.6783"/><text fill="#000000" font-family="sans-serif" font-size="14" font-weight="bold" lengthAdjust="spacing" textLength="270" x="226" y="720.7252">flutter_fms::services::firestore_service</text></g><!--cluster flutter_fms::utils::pose_analysis_utils--><g id="cluster_flutter_fms::utils::pose_analysis_utils"><path d="M858.5,775.38 L1125.5,775.38 A3.75,3.75 0 0 1 1128,777.88 L1135,797.8683 L1135.5,797.8683 A2.5,2.5 0 0 1 1138,800.3683 L1138,879.88 A2.5,2.5 0 0 1 1135.5,882.38 L858.5,882.38 A2.5,2.5 0 0 1 856,879.88 L856,777.88 A2.5,2.5 0 0 1 858.5,775.38 " fill="none" style="stroke:#000000;stroke-width:1.5;"/><line style="stroke:#000000;stroke-width:1.5;" x1="856" x2="1135" y1="797.8683" y2="797.8683"/><text fill="#000000" font-family="sans-serif" font-size="14" font-weight="bold" lengthAdjust="spacing" textLength="266" x="860" y="790.9152">flutter_fms::utils::pose_analysis_utils</text></g><!--cluster intl::src::intl::date_format--><g id="cluster_intl::src::intl::date_format"><path d="M8.5,775.38 L185.5,775.38 A3.75,3.75 0 0 1 188,777.88 L195,797.8683 L195.5,797.8683 A2.5,2.5 0 0 1 198,800.3683 L198,879.88 A2.5,2.5 0 0 1 195.5,882.38 L8.5,882.38 A2.5,2.5 0 0 1 6,879.88 L6,777.88 A2.5,2.5 0 0 1 8.5,775.38 " fill="none" style="stroke:#000000;stroke-width:1.5;"/><line style="stroke:#000000;stroke-width:1.5;" x1="6" x2="195" y1="797.8683" y2="797.8683"/><text fill="#000000" font-family="sans-serif" font-size="14" font-weight="bold" lengthAdjust="spacing" textLength="176" x="10" y="790.9152">intl::src::intl::date_format</text></g><!--cluster flutter_fms::screens::fms_capture::fms_capture_screen--><g id="cluster_flutter_fms::screens::fms_capture::fms_capture_screen"><path d="M1324.5,137 L1707.5,137 A3.75,3.75 0 0 1 1710,139.5 L1717,159.4883 L2051.5,159.4883 A2.5,2.5 0 0 1 2054,161.9883 L2054,678.69 A2.5,2.5 0 0 1 2051.5,681.19 L1324.5,681.19 A2.5,2.5 0 0 1 1322,678.69 L1322,139.5 A2.5,2.5 0 0 1 1324.5,137 " fill="none" style="stroke:#000000;stroke-width:1.5;"/><line style="stroke:#000000;stroke-width:1.5;" x1="1322" x2="1717" y1="159.4883" y2="159.4883"/><text fill="#000000" font-family="sans-serif" font-size="14" font-weight="bold" lengthAdjust="spacing" textLength="382" x="1326" y="152.5352">flutter_fms::screens::fms_capture::fms_capture_screen</text></g><!--cluster camera::src::camera_controller--><g id="cluster_camera::src::camera_controller"><path d="M1164.5,775.38 L1377.5,775.38 A3.75,3.75 0 0 1 1380,777.88 L1387,797.8683 L1387.5,797.8683 A2.5,2.5 0 0 1 1390,800.3683 L1390,879.88 A2.5,2.5 0 0 1 1387.5,882.38 L1164.5,882.38 A2.5,2.5 0 0 1 1162,879.88 L1162,777.88 A2.5,2.5 0 0 1 1164.5,775.38 " fill="none" style="stroke:#000000;stroke-width:1.5;"/><line style="stroke:#000000;stroke-width:1.5;" x1="1162" x2="1387" y1="797.8683" y2="797.8683"/><text fill="#000000" font-family="sans-serif" font-size="14" font-weight="bold" lengthAdjust="spacing" textLength="212" x="1166" y="790.9152">camera::src::camera_controller</text></g><!--cluster google_mlkit_pose_detection::src::pose_detector--><g id="cluster_google_mlkit_pose_detection::src::pose_detector"><path d="M1416.5,775.38 L1760.5,775.38 A3.75,3.75 0 0 1 1763,777.88 L1770,797.8683 L1770.5,797.8683 A2.5,2.5 0 0 1 1773,800.3683 L1773,879.88 A2.5,2.5 0 0 1 1770.5,882.38 L1416.5,882.38 A2.5,2.5 0 0 1 1414,879.88 L1414,777.88 A2.5,2.5 0 0 1 1416.5,775.38 " fill="none" style="stroke:#000000;stroke-width:1.5;"/><line style="stroke:#000000;stroke-width:1.5;" x1="1414" x2="1770" y1="797.8683" y2="797.8683"/><text fill="#000000" font-family="sans-serif" font-size="14" font-weight="bold" lengthAdjust="spacing" textLength="343" x="1418" y="790.9152">google_mlkit_pose_detection::src::pose_detector</text></g><!--cluster camera::src::camera_image--><g id="cluster_camera::src::camera_image"><path d="M1799.5,775.38 L1986.5,775.38 A3.75,3.75 0 0 1 1989,777.88 L1996,797.8683 L1996.5,797.8683 A2.5,2.5 0 0 1 1999,800.3683 L1999,879.88 A2.5,2.5 0 0 1 1996.5,882.38 L1799.5,882.38 A2.5,2.5 0 0 1 1797,879.88 L1797,777.88 A2.5,2.5 0 0 1 1799.5,775.38 " fill="none" style="stroke:#000000;stroke-width:1.5;"/><line style="stroke:#000000;stroke-width:1.5;" x1="1797" x2="1996" y1="797.8683" y2="797.8683"/><text fill="#000000" font-family="sans-serif" font-size="14" font-weight="bold" lengthAdjust="spacing" textLength="186" x="1801" y="790.9152">camera::src::camera_image</text></g><!--cluster google_mlkit_commons::src::input_image--><g id="cluster_google_mlkit_commons::src::input_image"><path d="M2025.5,775.38 L2320.5,775.38 A3.75,3.75 0 0 1 2323,777.88 L2330,797.8683 L2330.5,797.8683 A2.5,2.5 0 0 1 2333,800.3683 L2333,879.88 A2.5,2.5 0 0 1 2330.5,882.38 L2025.5,882.38 A2.5,2.5 0 0 1 2023,879.88 L2023,777.88 A2.5,2.5 0 0 1 2025.5,775.38 " fill="none" style="stroke:#000000;stroke-width:1.5;"/><line style="stroke:#000000;stroke-width:1.5;" x1="2023" x2="2330" y1="797.8683" y2="797.8683"/><text fill="#000000" font-family="sans-serif" font-size="14" font-weight="bold" lengthAdjust="spacing" textLength="294" x="2027" y="790.9152">google_mlkit_commons::src::input_image</text></g><!--cluster flutter::src::widgets::binding--><g id="cluster_flutter::src::widgets::binding"><path d="M1584.5,6 L1782.5,6 A3.75,3.75 0 0 1 1785,8.5 L1792,28.4883 L1792.5,28.4883 A2.5,2.5 0 0 1 1795,30.9883 L1795,110.5 A2.5,2.5 0 0 1 1792.5,113 L1584.5,113 A2.5,2.5 0 0 1 1582,110.5 L1582,8.5 A2.5,2.5 0 0 1 1584.5,6 " fill="none" style="stroke:#000000;stroke-width:1.5;"/><line style="stroke:#000000;stroke-width:1.5;" x1="1582" x2="1792" y1="28.4883" y2="28.4883"/><text fill="#000000" font-family="sans-serif" font-size="14" font-weight="bold" lengthAdjust="spacing" textLength="197" x="1586" y="21.5352">flutter::src::widgets::binding</text></g><!--cluster cloud_firestore::cloud_firestore--><g id="cluster_cloud_firestore::cloud_firestore"><path d="M159.5,976.58 L382.5,976.58 A3.75,3.75 0 0 1 385,979.08 L392,999.0683 L392.5,999.0683 A2.5,2.5 0 0 1 395,1001.5683 L395,1081.08 A2.5,2.5 0 0 1 392.5,1083.58 L159.5,1083.58 A2.5,2.5 0 0 1 157,1081.08 L157,979.08 A2.5,2.5 0 0 1 159.5,976.58 " fill="none" style="stroke:#000000;stroke-width:1.5;"/><line style="stroke:#000000;stroke-width:1.5;" x1="157" x2="392" y1="999.0683" y2="999.0683"/><text fill="#000000" font-family="sans-serif" font-size="14" font-weight="bold" lengthAdjust="spacing" textLength="222" x="161" y="992.1152">cloud_firestore::cloud_firestore</text></g><!--cluster flutter_fms::services::auth_service--><g id="cluster_flutter_fms::services::auth_service"><path d="M2667.5,310.13 L2908.5,310.13 A3.75,3.75 0 0 1 2911,312.63 L2918,332.6183 L3090.5,332.6183 A2.5,2.5 0 0 1 3093,335.1183 L3093,505.56 A2.5,2.5 0 0 1 3090.5,508.06 L2667.5,508.06 A2.5,2.5 0 0 1 2665,505.56 L2665,312.63 A2.5,2.5 0 0 1 2667.5,310.13 " fill="none" style="stroke:#000000;stroke-width:1.5;"/><line style="stroke:#000000;stroke-width:1.5;" x1="2665" x2="2918" y1="332.6183" y2="332.6183"/><text fill="#000000" font-family="sans-serif" font-size="14" font-weight="bold" lengthAdjust="spacing" textLength="240" x="2669" y="325.6652">flutter_fms::services::auth_service</text></g><!--cluster firebase_auth::firebase_auth--><g id="cluster_firebase_auth::firebase_auth"><path d="M3045.5,775.38 L3246.5,775.38 A3.75,3.75 0 0 1 3249,777.88 L3256,797.8683 L3256.5,797.8683 A2.5,2.5 0 0 1 3259,800.3683 L3259,879.88 A2.5,2.5 0 0 1 3256.5,882.38 L3045.5,882.38 A2.5,2.5 0 0 1 3043,879.88 L3043,777.88 A2.5,2.5 0 0 1 3045.5,775.38 " fill="none" style="stroke:#000000;stroke-width:1.5;"/><line style="stroke:#000000;stroke-width:1.5;" x1="3043" x2="3256" y1="797.8683" y2="797.8683"/><text fill="#000000" font-family="sans-serif" font-size="14" font-weight="bold" lengthAdjust="spacing" textLength="200" x="3047" y="790.9152">firebase_auth::firebase_auth</text></g><!--cluster flutter_fms::widgets::pose_painter--><g id="cluster_flutter_fms::widgets::pose_painter"><path d="M2202.5,277.15 L2445.5,277.15 A3.75,3.75 0 0 1 2448,279.65 L2455,299.6383 L2581.5,299.6383 A2.5,2.5 0 0 1 2584,302.1383 L2584,538.54 A2.5,2.5 0 0 1 2581.5,541.04 L2202.5,541.04 A2.5,2.5 0 0 1 2200,538.54 L2200,279.65 A2.5,2.5 0 0 1 2202.5,277.15 " fill="none" style="stroke:#000000;stroke-width:1.5;"/><line style="stroke:#000000;stroke-width:1.5;" x1="2200" x2="2455" y1="299.6383" y2="299.6383"/><text fill="#000000" font-family="sans-serif" font-size="14" font-weight="bold" lengthAdjust="spacing" textLength="242" x="2204" y="292.6852">flutter_fms::widgets::pose_painter</text></g><!--cluster camera_platform_interface::src::types::camera_description--><g id="cluster_camera_platform_interface::src::types::camera_description"><path d="M2597.5,775.38 L3006.5,775.38 A3.75,3.75 0 0 1 3009,777.88 L3016,797.8683 L3016.5,797.8683 A2.5,2.5 0 0 1 3019,800.3683 L3019,879.88 A2.5,2.5 0 0 1 3016.5,882.38 L2597.5,882.38 A2.5,2.5 0 0 1 2595,879.88 L2595,777.88 A2.5,2.5 0 0 1 2597.5,775.38 " fill="none" style="stroke:#000000;stroke-width:1.5;"/><line style="stroke:#000000;stroke-width:1.5;" x1="2595" x2="3016" y1="797.8683" y2="797.8683"/><text fill="#000000" font-family="sans-serif" font-size="14" font-weight="bold" lengthAdjust="spacing" textLength="408" x="2599" y="790.9152">camera_platform_interface::src::types::camera_description</text></g><!--cluster flutter::src::rendering::custom_paint--><g id="cluster_flutter::src::rendering::custom_paint"><path d="M2399.5,6 L2651.5,6 A3.75,3.75 0 0 1 2654,8.5 L2661,28.4883 L2661.5,28.4883 A2.5,2.5 0 0 1 2664,30.9883 L2664,110.5 A2.5,2.5 0 0 1 2661.5,113 L2399.5,113 A2.5,2.5 0 0 1 2397,110.5 L2397,8.5 A2.5,2.5 0 0 1 2399.5,6 " fill="none" style="stroke:#000000;stroke-width:1.5;"/><line style="stroke:#000000;stroke-width:1.5;" x1="2397" x2="2661" y1="28.4883" y2="28.4883"/><text fill="#000000" font-family="sans-serif" font-size="14" font-weight="bold" lengthAdjust="spacing" textLength="251" x="2401" y="21.5352">flutter::src::rendering::custom_paint</text></g><!--class dart::HistoryScreen--><g id="elem_dart::HistoryScreen"><rect codeLine="219" fill="#F1F1F1" height="64.4883" id="dart::HistoryScreen" rx="2.5" ry="2.5" style="stroke:#181818;stroke-width:0.5;" width="266" x="628" y="386.35"/><ellipse cx="691.75" cy="402.35" fill="#ADD1B2" rx="11" ry="11" style="stroke:#181818;stroke-width:1.0;"/><path d="M694.2231,408.4931 Q693.6421,408.7919 693.0029,408.9413 Q692.3638,409.0907 691.6582,409.0907 Q689.1514,409.0907 687.8315,407.4389 Q686.5117,405.787 686.5117,402.6659 Q686.5117,399.5365 687.8315,397.8847 Q689.1514,396.2328 691.6582,396.2328 Q692.3638,396.2328 693.0112,396.3822 Q693.6587,396.5316 694.2231,396.8305 L694.2231,399.5531 Q693.5923,398.9721 692.9988,398.7023 Q692.4053,398.4325 691.7744,398.4325 Q690.4297,398.4325 689.7449,399.4992 Q689.0601,400.5658 689.0601,402.6659 Q689.0601,404.7577 689.7449,405.8244 Q690.4297,406.891 691.7744,406.891 Q692.4053,406.891 692.9988,406.6212 Q693.5923,406.3515 694.2231,405.7704 Z " fill="#000000"/><text fill="#000000" font-family="sans-serif" font-size="14" lengthAdjust="spacing" textLength="130" x="712.25" y="407.641">dart::HistoryScreen</text><line style="stroke:#181818;stroke-width:0.5;" x1="629" x2="893" y1="418.35" y2="418.35"/><line style="stroke:#181818;stroke-width:0.5;" x1="629" x2="893" y1="426.35" y2="426.35"/><ellipse cx="639" cy="440.0941" fill="#84BE84" rx="3" ry="3" style="stroke:#038048;stroke-width:1.0;"/><text fill="#000000" font-family="sans-serif" font-size="14" lengthAdjust="spacing" textLength="240" x="648" y="443.8852">State&lt;HistoryScreen&gt; createState()</text></g><!--class dart--><g id="elem_dart"><rect fill="#F1F1F1" height="48" id="dart" rx="2.5" ry="2.5" style="stroke:#181818;stroke-width:0.5;" width="60" x="912" y="394.59"/><ellipse cx="927" cy="410.59" fill="#ADD1B2" rx="11" ry="11" style="stroke:#181818;stroke-width:1.0;"/><path d="M929.4731,416.7331 Q928.8921,417.0319 928.2529,417.1813 Q927.6138,417.3307 926.9082,417.3307 Q924.4014,417.3307 923.0815,415.6789 Q921.7617,414.027 921.7617,410.9059 Q921.7617,407.7765 923.0815,406.1247 Q924.4014,404.4728 926.9082,404.4728 Q927.6138,404.4728 928.2612,404.6222 Q928.9087,404.7716 929.4731,405.0705 L929.4731,407.7931 Q928.8423,407.2121 928.2488,406.9423 Q927.6553,406.6725 927.0244,406.6725 Q925.6797,406.6725 924.9949,407.7392 Q924.3101,408.8058 924.3101,410.9059 Q924.3101,412.9977 924.9949,414.0644 Q925.6797,415.131 927.0244,415.131 Q927.6553,415.131 928.2488,414.8612 Q928.8423,414.5915 929.4731,414.0104 Z " fill="#000000"/><text fill="#000000" font-family="sans-serif" font-size="14" lengthAdjust="spacing" textLength="28" x="941" y="415.881">dart</text><line style="stroke:#181818;stroke-width:0.5;" x1="913" x2="971" y1="426.59" y2="426.59"/><line style="stroke:#181818;stroke-width:0.5;" x1="913" x2="971" y1="434.59" y2="434.59"/></g><!--class dart::_HistoryScreenState--><g id="elem_dart::_HistoryScreenState"><rect codeLine="225" fill="#F1F1F1" height="262.3477" id="dart::_HistoryScreenState" rx="2.5" ry="2.5" style="stroke:#181818;stroke-width:0.5;" width="293" x="989.5" y="287.42"/><ellipse cx="1046.25" cy="303.42" fill="#ADD1B2" rx="11" ry="11" style="stroke:#181818;stroke-width:1.0;"/><path d="M1048.7231,309.5631 Q1048.1421,309.8619 1047.5029,310.0113 Q1046.8638,310.1607 1046.1582,310.1607 Q1043.6514,310.1607 1042.3315,308.5089 Q1041.0117,306.857 1041.0117,303.7359 Q1041.0117,300.6065 1042.3315,298.9547 Q1043.6514,297.3028 1046.1582,297.3028 Q1046.8638,297.3028 1047.5112,297.4522 Q1048.1587,297.6016 1048.7231,297.9005 L1048.7231,300.6231 Q1048.0923,300.0421 1047.4988,299.7723 Q1046.9053,299.5025 1046.2744,299.5025 Q1044.9297,299.5025 1044.2449,300.5692 Q1043.5601,301.6358 1043.5601,303.7359 Q1043.5601,305.8277 1044.2449,306.8944 Q1044.9297,307.961 1046.2744,307.961 Q1046.9053,307.961 1047.4988,307.6912 Q1048.0923,307.4215 1048.7231,306.8404 Z " fill="#000000"/><text fill="#000000" font-family="sans-serif" font-size="14" lengthAdjust="spacing" textLength="171" x="1066.75" y="308.711">dart::_HistoryScreenState</text><line style="stroke:#181818;stroke-width:0.5;" x1="990.5" x2="1281.5" y1="319.42" y2="319.42"/><rect fill="none" height="6" style="stroke:#C82930;stroke-width:1.0;" width="6" x="997.5" y="330.1641"/><text fill="#000000" font-family="sans-serif" font-size="14" lengthAdjust="spacing" textLength="178" x="1009.5" y="336.9552">FirestoreService _firestore</text><rect fill="none" height="6" style="stroke:#C82930;stroke-width:1.0;" width="6" x="997.5" y="346.6524"/><text fill="#000000" font-family="sans-serif" font-size="14" lengthAdjust="spacing" textLength="199" x="1009.5" y="353.4434">ExerciseType? _exerciseFilter</text><rect fill="none" height="6" style="stroke:#C82930;stroke-width:1.0;" width="6" x="997.5" y="363.1407"/><text fill="#000000" font-family="sans-serif" font-size="14" lengthAdjust="spacing" textLength="101" x="1009.5" y="369.9317">bool _sortDesc</text><rect fill="none" height="6" style="stroke:#C82930;stroke-width:1.0;" width="6" x="997.5" y="379.629"/><text fill="#000000" font-family="sans-serif" font-size="14" lengthAdjust="spacing" textLength="91" x="1009.5" y="386.42">String _query</text><rect fill="none" height="6" style="stroke:#C82930;stroke-width:1.0;" width="6" x="997.5" y="396.1173"/><text fill="#000000" font-family="sans-serif" font-size="14" lengthAdjust="spacing" textLength="147" x="1009.5" y="402.9083">DateFormat _dateFmt</text><line style="stroke:#181818;stroke-width:0.5;" x1="990.5" x2="1281.5" y1="409.8614" y2="409.8614"/><rect fill="#F24D5C" height="6" style="stroke:#C82930;stroke-width:1.0;" width="6" x="997.5" y="420.6055"/><text fill="#000000" font-family="sans-serif" font-size="14" lengthAdjust="spacing" textLength="124" x="1009.5" y="427.3966">String _formatTs()</text><rect fill="#F24D5C" height="6" style="stroke:#C82930;stroke-width:1.0;" width="6" x="997.5" y="437.0938"/><text fill="#000000" font-family="sans-serif" font-size="14" lengthAdjust="spacing" textLength="267" x="1009.5" y="443.8848">List&lt;FMSSessionModel&gt; _applyFilters()</text><rect fill="#F24D5C" height="6" style="stroke:#C82930;stroke-width:1.0;" width="6" x="997.5" y="453.5821"/><text fill="#000000" font-family="sans-serif" font-size="14" lengthAdjust="spacing" textLength="174" x="1009.5" y="460.3731">dynamic _confirmDelete()</text><rect fill="#F24D5C" height="6" style="stroke:#C82930;stroke-width:1.0;" width="6" x="997.5" y="470.0704"/><text fill="#000000" font-family="sans-serif" font-size="14" lengthAdjust="spacing" textLength="152" x="1009.5" y="476.8614">Widget _buildHeader()</text><rect fill="#F24D5C" height="6" style="stroke:#C82930;stroke-width:1.0;" width="6" x="997.5" y="486.5587"/><text fill="#000000" font-family="sans-serif" font-size="14" lengthAdjust="spacing" textLength="162" x="1009.5" y="493.3497">Widget _buildFeatures()</text><rect fill="#F24D5C" height="6" style="stroke:#C82930;stroke-width:1.0;" width="6" x="997.5" y="503.047"/><text fill="#000000" font-family="sans-serif" font-size="14" lengthAdjust="spacing" textLength="171" x="1009.5" y="509.838">Widget _buildPainChips()</text><rect fill="#F24D5C" height="6" style="stroke:#C82930;stroke-width:1.0;" width="6" x="997.5" y="519.5352"/><text fill="#000000" font-family="sans-serif" font-size="14" lengthAdjust="spacing" textLength="128" x="1009.5" y="526.3263">Widget _buildTile()</text><ellipse cx="1000.5" cy="539.0235" fill="#84BE84" rx="3" ry="3" style="stroke:#038048;stroke-width:1.0;"/><text fill="#000000" font-family="sans-serif" font-size="14" lengthAdjust="spacing" textLength="96" x="1009.5" y="542.8145">Widget build()</text></g><!--class dart--><g id="elem_dart"><rect fill="#F1F1F1" height="48" id="dart" rx="2.5" ry="2.5" style="stroke:#181818;stroke-width:0.5;" width="60" x="1161" y="45"/><ellipse cx="1176" cy="61" fill="#ADD1B2" rx="11" ry="11" style="stroke:#181818;stroke-width:1.0;"/><path d="M1178.4731,67.1431 Q1177.8921,67.4419 1177.2529,67.5913 Q1176.6138,67.7407 1175.9082,67.7407 Q1173.4014,67.7407 1172.0815,66.0889 Q1170.7617,64.437 1170.7617,61.3159 Q1170.7617,58.1865 1172.0815,56.5347 Q1173.4014,54.8828 1175.9082,54.8828 Q1176.6138,54.8828 1177.2612,55.0322 Q1177.9087,55.1816 1178.4731,55.4805 L1178.4731,58.2031 Q1177.8423,57.6221 1177.2488,57.3523 Q1176.6553,57.0825 1176.0244,57.0825 Q1174.6797,57.0825 1173.9949,58.1492 Q1173.3101,59.2158 1173.3101,61.3159 Q1173.3101,63.4077 1173.9949,64.4744 Q1174.6797,65.541 1176.0244,65.541 Q1176.6553,65.541 1177.2488,65.2712 Q1177.8423,65.0015 1178.4731,64.4204 Z " fill="#000000"/><text fill="#000000" font-family="sans-serif" font-size="14" lengthAdjust="spacing" textLength="28" x="1190" y="66.291">dart</text><line style="stroke:#181818;stroke-width:0.5;" x1="1162" x2="1220" y1="77" y2="77"/><line style="stroke:#181818;stroke-width:0.5;" x1="1162" x2="1220" y1="85" y2="85"/></g><!--class dart--><g id="elem_dart"><rect fill="#F1F1F1" height="48" id="dart" rx="2.5" ry="2.5" style="stroke:#181818;stroke-width:0.5;" width="60" x="246" y="814.38"/><ellipse cx="261" cy="830.38" fill="#ADD1B2" rx="11" ry="11" style="stroke:#181818;stroke-width:1.0;"/><path d="M263.4731,836.5231 Q262.8921,836.8219 262.2529,836.9713 Q261.6138,837.1207 260.9082,837.1207 Q258.4014,837.1207 257.0815,835.4689 Q255.7617,833.817 255.7617,830.6959 Q255.7617,827.5665 257.0815,825.9147 Q258.4014,824.2628 260.9082,824.2628 Q261.6138,824.2628 262.2612,824.4122 Q262.9087,824.5616 263.4731,824.8605 L263.4731,827.5831 Q262.8423,827.0021 262.2488,826.7323 Q261.6553,826.4625 261.0244,826.4625 Q259.6797,826.4625 258.9949,827.5292 Q258.3101,828.5958 258.3101,830.6959 Q258.3101,832.7877 258.9949,833.8544 Q259.6797,834.921 261.0244,834.921 Q261.6553,834.921 262.2488,834.6512 Q262.8423,834.3815 263.4731,833.8004 Z " fill="#000000"/><text fill="#000000" font-family="sans-serif" font-size="14" lengthAdjust="spacing" textLength="28" x="275" y="835.671">dart</text><line style="stroke:#181818;stroke-width:0.5;" x1="247" x2="305" y1="846.38" y2="846.38"/><line style="stroke:#181818;stroke-width:0.5;" x1="247" x2="305" y1="854.38" y2="854.38"/></g><!--class dart::FirestoreService--><g id="elem_dart::FirestoreService"><rect codeLine="292" fill="#F1F1F1" height="196.3945" id="dart::FirestoreService" rx="2.5" ry="2.5" style="stroke:#181818;stroke-width:0.5;" width="493" x="323.5" y="740.19"/><ellipse cx="493.25" cy="756.19" fill="#ADD1B2" rx="11" ry="11" style="stroke:#181818;stroke-width:1.0;"/><path d="M495.7231,762.3331 Q495.1421,762.6319 494.5029,762.7813 Q493.8638,762.9307 493.1582,762.9307 Q490.6514,762.9307 489.3315,761.2789 Q488.0117,759.627 488.0117,756.5059 Q488.0117,753.3765 489.3315,751.7247 Q490.6514,750.0728 493.1582,750.0728 Q493.8638,750.0728 494.5112,750.2222 Q495.1587,750.3716 495.7231,750.6705 L495.7231,753.3931 Q495.0923,752.8121 494.4988,752.5423 Q493.9053,752.2725 493.2744,752.2725 Q491.9297,752.2725 491.2449,753.3392 Q490.5601,754.4058 490.5601,756.5059 Q490.5601,758.5977 491.2449,759.6644 Q491.9297,760.731 493.2744,760.731 Q493.9053,760.731 494.4988,760.4612 Q495.0923,760.1915 495.7231,759.6104 Z " fill="#000000"/><text fill="#000000" font-family="sans-serif" font-size="14" lengthAdjust="spacing" textLength="145" x="513.75" y="761.481">dart::FirestoreService</text><line style="stroke:#181818;stroke-width:0.5;" x1="324.5" x2="815.5" y1="772.19" y2="772.19"/><rect fill="none" height="6" style="stroke:#C82930;stroke-width:1.0;" width="6" x="331.5" y="782.9341"/><text fill="#000000" font-family="sans-serif" font-size="14" lengthAdjust="spacing" textLength="188" x="343.5" y="789.7252">FirebaseFirestore _firestore</text><line style="stroke:#181818;stroke-width:0.5;" x1="324.5" x2="815.5" y1="796.6783" y2="796.6783"/><ellipse cx="334.5" cy="810.4224" fill="#84BE84" rx="3" ry="3" style="stroke:#038048;stroke-width:1.0;"/><text fill="#000000" font-family="sans-serif" font-size="14" lengthAdjust="spacing" textLength="188" x="343.5" y="814.2134">dynamic createUserProfile()</text><ellipse cx="334.5" cy="826.9107" fill="#84BE84" rx="3" ry="3" style="stroke:#038048;stroke-width:1.0;"/><text fill="#000000" font-family="sans-serif" font-size="14" lengthAdjust="spacing" textLength="304" x="343.5" y="830.7017">Stream&lt;UserProfileModel?&gt; getUserProfile()</text><ellipse cx="334.5" cy="843.399" fill="#84BE84" rx="3" ry="3" style="stroke:#038048;stroke-width:1.0;"/><text fill="#000000" font-family="sans-serif" font-size="14" lengthAdjust="spacing" textLength="194" x="343.5" y="847.19">dynamic updateUserProfile()</text><ellipse cx="334.5" cy="859.8873" fill="#84BE84" rx="3" ry="3" style="stroke:#038048;stroke-width:1.0;"/><text fill="#000000" font-family="sans-serif" font-size="14" lengthAdjust="spacing" textLength="173" x="343.5" y="863.6783">dynamic saveFMSession()</text><ellipse cx="334.5" cy="876.3755" fill="#84BE84" rx="3" ry="3" style="stroke:#038048;stroke-width:1.0;"/><text fill="#000000" font-family="sans-serif" font-size="14" lengthAdjust="spacing" textLength="467" x="343.5" y="880.1666">Stream&lt;List&lt;FMSSessionModel&gt;&gt; getFMSSessionsForCurrentUser()</text><ellipse cx="334.5" cy="892.8638" fill="#84BE84" rx="3" ry="3" style="stroke:#038048;stroke-width:1.0;"/><text fill="#000000" font-family="sans-serif" font-size="14" lengthAdjust="spacing" textLength="414" x="343.5" y="896.6548">Stream&lt;List&lt;FMSSessionModel&gt;&gt; getFMSSessionsForUser()</text><ellipse cx="334.5" cy="909.3521" fill="#84BE84" rx="3" ry="3" style="stroke:#038048;stroke-width:1.0;"/><text fill="#000000" font-family="sans-serif" font-size="14" lengthAdjust="spacing" textLength="199" x="343.5" y="913.1431">dynamic updateFMSSession()</text><ellipse cx="334.5" cy="925.8404" fill="#84BE84" rx="3" ry="3" style="stroke:#038048;stroke-width:1.0;"/><text fill="#000000" font-family="sans-serif" font-size="14" lengthAdjust="spacing" textLength="193" x="343.5" y="929.6314">dynamic deleteFMSSession()</text></g><!--class dart--><g id="elem_dart"><rect fill="#F1F1F1" height="48" id="dart" rx="2.5" ry="2.5" style="stroke:#181818;stroke-width:0.5;" width="60" x="983" y="814.38"/><ellipse cx="998" cy="830.38" fill="#ADD1B2" rx="11" ry="11" style="stroke:#181818;stroke-width:1.0;"/><path d="M1000.4731,836.5231 Q999.8921,836.8219 999.2529,836.9713 Q998.6138,837.1207 997.9082,837.1207 Q995.4014,837.1207 994.0815,835.4689 Q992.7617,833.817 992.7617,830.6959 Q992.7617,827.5665 994.0815,825.9147 Q995.4014,824.2628 997.9082,824.2628 Q998.6138,824.2628 999.2612,824.4122 Q999.9087,824.5616 1000.4731,824.8605 L1000.4731,827.5831 Q999.8423,827.0021 999.2488,826.7323 Q998.6553,826.4625 998.0244,826.4625 Q996.6797,826.4625 995.9949,827.5292 Q995.3101,828.5958 995.3101,830.6959 Q995.3101,832.7877 995.9949,833.8544 Q996.6797,834.921 998.0244,834.921 Q998.6553,834.921 999.2488,834.6512 Q999.8423,834.3815 1000.4731,833.8004 Z " fill="#000000"/><text fill="#000000" font-family="sans-serif" font-size="14" lengthAdjust="spacing" textLength="28" x="1012" y="835.671">dart</text><line style="stroke:#181818;stroke-width:0.5;" x1="984" x2="1042" y1="846.38" y2="846.38"/><line style="stroke:#181818;stroke-width:0.5;" x1="984" x2="1042" y1="854.38" y2="854.38"/></g><!--class dart--><g id="elem_dart"><rect fill="#F1F1F1" height="48" id="dart" rx="2.5" ry="2.5" style="stroke:#181818;stroke-width:0.5;" width="60" x="114" y="814.38"/><ellipse cx="129" cy="830.38" fill="#ADD1B2" rx="11" ry="11" style="stroke:#181818;stroke-width:1.0;"/><path d="M131.4731,836.5231 Q130.8921,836.8219 130.2529,836.9713 Q129.6138,837.1207 128.9082,837.1207 Q126.4014,837.1207 125.0815,835.4689 Q123.7617,833.817 123.7617,830.6959 Q123.7617,827.5665 125.0815,825.9147 Q126.4014,824.2628 128.9082,824.2628 Q129.6138,824.2628 130.2612,824.4122 Q130.9087,824.5616 131.4731,824.8605 L131.4731,827.5831 Q130.8423,827.0021 130.2488,826.7323 Q129.6553,826.4625 129.0244,826.4625 Q127.6797,826.4625 126.9949,827.5292 Q126.3101,828.5958 126.3101,830.6959 Q126.3101,832.7877 126.9949,833.8544 Q127.6797,834.921 129.0244,834.921 Q129.6553,834.921 130.2488,834.6512 Q130.8423,834.3815 131.4731,833.8004 Z " fill="#000000"/><text fill="#000000" font-family="sans-serif" font-size="14" lengthAdjust="spacing" textLength="28" x="143" y="835.671">dart</text><line style="stroke:#181818;stroke-width:0.5;" x1="115" x2="173" y1="846.38" y2="846.38"/><line style="stroke:#181818;stroke-width:0.5;" x1="115" x2="173" y1="854.38" y2="854.38"/></g><!--class dart::FMSCaptureScreen--><g id="elem_dart::FMSCaptureScreen"><rect codeLine="246" fill="#F1F1F1" height="80.9766" id="dart::FMSCaptureScreen" rx="2.5" ry="2.5" style="stroke:#181818;stroke-width:0.5;" width="301" x="1338.5" y="378.11"/><ellipse cx="1402.25" cy="394.11" fill="#ADD1B2" rx="11" ry="11" style="stroke:#181818;stroke-width:1.0;"/><path d="M1404.7231,400.2531 Q1404.1421,400.5519 1403.5029,400.7013 Q1402.8638,400.8507 1402.1582,400.8507 Q1399.6514,400.8507 1398.3315,399.1989 Q1397.0117,397.547 1397.0117,394.4259 Q1397.0117,391.2965 1398.3315,389.6447 Q1399.6514,387.9928 1402.1582,387.9928 Q1402.8638,387.9928 1403.5112,388.1422 Q1404.1587,388.2916 1404.7231,388.5905 L1404.7231,391.3131 Q1404.0923,390.7321 1403.4988,390.4623 Q1402.9053,390.1925 1402.2744,390.1925 Q1400.9297,390.1925 1400.2449,391.2592 Q1399.5601,392.3258 1399.5601,394.4259 Q1399.5601,396.5177 1400.2449,397.5844 Q1400.9297,398.651 1402.2744,398.651 Q1402.9053,398.651 1403.4988,398.3812 Q1404.0923,398.1115 1404.7231,397.5304 Z " fill="#000000"/><text fill="#000000" font-family="sans-serif" font-size="14" lengthAdjust="spacing" textLength="165" x="1422.75" y="399.401">dart::FMSCaptureScreen</text><line style="stroke:#181818;stroke-width:0.5;" x1="1339.5" x2="1638.5" y1="410.11" y2="410.11"/><ellipse cx="1349.5" cy="423.8541" fill="none" rx="3" ry="3" style="stroke:#038048;stroke-width:1.0;"/><text fill="#000000" font-family="sans-serif" font-size="14" lengthAdjust="spacing" textLength="237" x="1358.5" y="427.6452">List&lt;CameraDescription&gt; cameras</text><line style="stroke:#181818;stroke-width:0.5;" x1="1339.5" x2="1638.5" y1="434.5983" y2="434.5983"/><ellipse cx="1349.5" cy="448.3424" fill="#84BE84" rx="3" ry="3" style="stroke:#038048;stroke-width:1.0;"/><text fill="#000000" font-family="sans-serif" font-size="14" lengthAdjust="spacing" textLength="275" x="1358.5" y="452.1334">State&lt;FMSCaptureScreen&gt; createState()</text></g><!--class dart--><g id="elem_dart"><rect fill="#F1F1F1" height="48" id="dart" rx="2.5" ry="2.5" style="stroke:#181818;stroke-width:0.5;" width="60" x="1658" y="394.59"/><ellipse cx="1673" cy="410.59" fill="#ADD1B2" rx="11" ry="11" style="stroke:#181818;stroke-width:1.0;"/><path d="M1675.4731,416.7331 Q1674.8921,417.0319 1674.2529,417.1813 Q1673.6138,417.3307 1672.9082,417.3307 Q1670.4014,417.3307 1669.0815,415.6789 Q1667.7617,414.027 1667.7617,410.9059 Q1667.7617,407.7765 1669.0815,406.1247 Q1670.4014,404.4728 1672.9082,404.4728 Q1673.6138,404.4728 1674.2612,404.6222 Q1674.9087,404.7716 1675.4731,405.0705 L1675.4731,407.7931 Q1674.8423,407.2121 1674.2488,406.9423 Q1673.6553,406.6725 1673.0244,406.6725 Q1671.6797,406.6725 1670.9949,407.7392 Q1670.3101,408.8058 1670.3101,410.9059 Q1670.3101,412.9977 1670.9949,414.0644 Q1671.6797,415.131 1673.0244,415.131 Q1673.6553,415.131 1674.2488,414.8612 Q1674.8423,414.5915 1675.4731,414.0104 Z " fill="#000000"/><text fill="#000000" font-family="sans-serif" font-size="14" lengthAdjust="spacing" textLength="28" x="1687" y="415.881">dart</text><line style="stroke:#181818;stroke-width:0.5;" x1="1659" x2="1717" y1="426.59" y2="426.59"/><line style="stroke:#181818;stroke-width:0.5;" x1="1659" x2="1717" y1="434.59" y2="434.59"/></g><!--class dart::_FMSCaptureScreenState--><g id="elem_dart::_FMSCaptureScreenState"><rect codeLine="253" fill="#F1F1F1" height="493.1836" id="dart::_FMSCaptureScreenState" rx="2.5" ry="2.5" style="stroke:#181818;stroke-width:0.5;" width="303" x="1735.5" y="172"/><ellipse cx="1779.75" cy="188" fill="#ADD1B2" rx="11" ry="11" style="stroke:#181818;stroke-width:1.0;"/><path d="M1782.2231,194.1431 Q1781.6421,194.4419 1781.0029,194.5913 Q1780.3638,194.7407 1779.6582,194.7407 Q1777.1514,194.7407 1775.8315,193.0889 Q1774.5117,191.437 1774.5117,188.3159 Q1774.5117,185.1865 1775.8315,183.5347 Q1777.1514,181.8828 1779.6582,181.8828 Q1780.3638,181.8828 1781.0112,182.0322 Q1781.6587,182.1816 1782.2231,182.4805 L1782.2231,185.2031 Q1781.5923,184.6221 1780.9988,184.3523 Q1780.4053,184.0825 1779.7744,184.0825 Q1778.4297,184.0825 1777.7449,185.1492 Q1777.0601,186.2158 1777.0601,188.3159 Q1777.0601,190.4077 1777.7449,191.4744 Q1778.4297,192.541 1779.7744,192.541 Q1780.4053,192.541 1780.9988,192.2712 Q1781.5923,192.0015 1782.2231,191.4204 Z " fill="#000000"/><text fill="#000000" font-family="sans-serif" font-size="14" lengthAdjust="spacing" textLength="206" x="1800.25" y="193.291">dart::_FMSCaptureScreenState</text><line style="stroke:#181818;stroke-width:0.5;" x1="1736.5" x2="2037.5" y1="204" y2="204"/><rect fill="none" height="6" style="stroke:#C82930;stroke-width:1.0;" width="6" x="1743.5" y="214.7441"/><text fill="#000000" font-family="sans-serif" font-size="14" lengthAdjust="spacing" textLength="260" x="1755.5" y="221.5352">CameraController? _cameraController</text><rect fill="none" height="6" style="stroke:#C82930;stroke-width:1.0;" width="6" x="1743.5" y="231.2324"/><text fill="#000000" font-family="sans-serif" font-size="14" lengthAdjust="spacing" textLength="123" x="1755.5" y="238.0234">bool _isRecording</text><rect fill="none" height="6" style="stroke:#C82930;stroke-width:1.0;" width="6" x="1743.5" y="247.7207"/><text fill="#000000" font-family="sans-serif" font-size="14" lengthAdjust="spacing" textLength="152" x="1755.5" y="254.5117">String? _errorMessage</text><rect fill="none" height="6" style="stroke:#C82930;stroke-width:1.0;" width="6" x="1743.5" y="264.209"/><text fill="#000000" font-family="sans-serif" font-size="14" lengthAdjust="spacing" textLength="220" x="1755.5" y="271">ExerciseType? _selectedExercise</text><rect fill="none" height="6" style="stroke:#C82930;stroke-width:1.0;" width="6" x="1743.5" y="280.6973"/><text fill="#000000" font-family="sans-serif" font-size="14" lengthAdjust="spacing" textLength="145" x="1755.5" y="287.4883">int _currentFmsScore</text><rect fill="none" height="6" style="stroke:#C82930;stroke-width:1.0;" width="6" x="1743.5" y="297.1855"/><text fill="#000000" font-family="sans-serif" font-size="14" lengthAdjust="spacing" textLength="169" x="1755.5" y="303.9766">List&lt;Pose&gt; _poseHistory</text><rect fill="none" height="6" style="stroke:#C82930;stroke-width:1.0;" width="6" x="1743.5" y="313.6738"/><text fill="#000000" font-family="sans-serif" font-size="14" lengthAdjust="spacing" textLength="186" x="1755.5" y="320.4648">List&lt;Pose&gt; _detectedPoses</text><rect fill="none" height="6" style="stroke:#C82930;stroke-width:1.0;" width="6" x="1743.5" y="330.1621"/><text fill="#000000" font-family="sans-serif" font-size="14" lengthAdjust="spacing" textLength="192" x="1755.5" y="336.9531">PoseDetector _poseDetector</text><rect fill="none" height="6" style="stroke:#C82930;stroke-width:1.0;" width="6" x="1743.5" y="346.6504"/><text fill="#000000" font-family="sans-serif" font-size="14" lengthAdjust="spacing" textLength="191" x="1755.5" y="353.4414">CameraImage? _latestImage</text><rect fill="none" height="6" style="stroke:#C82930;stroke-width:1.0;" width="6" x="1743.5" y="363.1387"/><text fill="#000000" font-family="sans-serif" font-size="14" lengthAdjust="spacing" textLength="90" x="1755.5" y="369.9297">bool _mlBusy</text><rect fill="none" height="6" style="stroke:#C82930;stroke-width:1.0;" width="6" x="1743.5" y="379.627"/><text fill="#000000" font-family="sans-serif" font-size="14" lengthAdjust="spacing" textLength="116" x="1755.5" y="386.418">Timer? _mlTicker</text><rect fill="none" height="6" style="stroke:#C82930;stroke-width:1.0;" width="6" x="1743.5" y="396.1152"/><text fill="#000000" font-family="sans-serif" font-size="14" lengthAdjust="spacing" textLength="253" x="1755.5" y="402.9062">InputImageRotation _cachedRotation</text><rect fill="none" height="6" style="stroke:#C82930;stroke-width:1.0;" width="6" x="1743.5" y="412.6035"/><text fill="#000000" font-family="sans-serif" font-size="14" lengthAdjust="spacing" textLength="178" x="1755.5" y="419.3945">int _historySampleModulo</text><line style="stroke:#181818;stroke-width:0.5;" x1="1736.5" x2="2037.5" y1="426.3477" y2="426.3477"/><ellipse cx="1746.5" cy="440.0918" fill="#84BE84" rx="3" ry="3" style="stroke:#038048;stroke-width:1.0;"/><text fill="#000000" font-family="sans-serif" font-size="14" lengthAdjust="spacing" textLength="99" x="1755.5" y="443.8828">void initState()</text><ellipse cx="1746.5" cy="456.5801" fill="#84BE84" rx="3" ry="3" style="stroke:#038048;stroke-width:1.0;"/><text fill="#000000" font-family="sans-serif" font-size="14" lengthAdjust="spacing" textLength="96" x="1755.5" y="460.3711">void dispose()</text><ellipse cx="1746.5" cy="473.0684" fill="#84BE84" rx="3" ry="3" style="stroke:#038048;stroke-width:1.0;"/><text fill="#000000" font-family="sans-serif" font-size="14" lengthAdjust="spacing" textLength="237" x="1755.5" y="476.8594">void didChangeAppLifecycleState()</text><rect fill="#F24D5C" height="6" style="stroke:#C82930;stroke-width:1.0;" width="6" x="1743.5" y="486.5566"/><text fill="#000000" font-family="sans-serif" font-size="14" lengthAdjust="spacing" textLength="174" x="1755.5" y="493.3477">void _resetAnalysisState()</text><rect fill="#F24D5C" height="6" style="stroke:#C82930;stroke-width:1.0;" width="6" x="1743.5" y="503.0449"/><text fill="#000000" font-family="sans-serif" font-size="14" lengthAdjust="spacing" textLength="189" x="1755.5" y="509.8359">dynamic _initializeCamera()</text><rect fill="#F24D5C" height="6" style="stroke:#C82930;stroke-width:1.0;" width="6" x="1743.5" y="519.5332"/><text fill="#000000" font-family="sans-serif" font-size="14" lengthAdjust="spacing" textLength="249" x="1755.5" y="526.3242">dynamic _processLatestFrameIfAny()</text><rect fill="#F24D5C" height="6" style="stroke:#C82930;stroke-width:1.0;" width="6" x="1743.5" y="536.0215"/><text fill="#000000" font-family="sans-serif" font-size="14" lengthAdjust="spacing" textLength="191" x="1755.5" y="542.8125">InputImage _toInputImage()</text><rect fill="#F24D5C" height="6" style="stroke:#C82930;stroke-width:1.0;" width="6" x="1743.5" y="552.5098"/><text fill="#000000" font-family="sans-serif" font-size="14" lengthAdjust="spacing" textLength="201" x="1755.5" y="559.3008">dynamic _askSelfReportPain()</text><rect fill="#F24D5C" height="6" style="stroke:#C82930;stroke-width:1.0;" width="6" x="1743.5" y="568.998"/><text fill="#000000" font-family="sans-serif" font-size="14" lengthAdjust="spacing" textLength="218" x="1755.5" y="575.7891">dynamic _startVideoRecording()</text><rect fill="#F24D5C" height="6" style="stroke:#C82930;stroke-width:1.0;" width="6" x="1743.5" y="585.4863"/><text fill="#000000" font-family="sans-serif" font-size="14" lengthAdjust="spacing" textLength="276" x="1755.5" y="592.2773">dynamic _stopVideoRecordingAndSave()</text><rect fill="#F24D5C" height="6" style="stroke:#C82930;stroke-width:1.0;" width="6" x="1743.5" y="601.9746"/><text fill="#000000" font-family="sans-serif" font-size="14" lengthAdjust="spacing" textLength="252" x="1755.5" y="608.7656">dynamic _analyzeVideoFromGallery()</text><rect fill="#F24D5C" height="6" style="stroke:#C82930;stroke-width:1.0;" width="6" x="1743.5" y="618.4629"/><text fill="#000000" font-family="sans-serif" font-size="14" lengthAdjust="spacing" textLength="277" x="1755.5" y="625.2539">dynamic _finalizeAndSaveSessionScore()</text><rect fill="#F24D5C" height="6" style="stroke:#C82930;stroke-width:1.0;" width="6" x="1743.5" y="634.9512"/><text fill="#000000" font-family="sans-serif" font-size="14" lengthAdjust="spacing" textLength="220" x="1755.5" y="641.7422">void _selectExerciseFromMenu()</text><ellipse cx="1746.5" cy="654.4395" fill="#84BE84" rx="3" ry="3" style="stroke:#038048;stroke-width:1.0;"/><text fill="#000000" font-family="sans-serif" font-size="14" lengthAdjust="spacing" textLength="96" x="1755.5" y="658.2305">Widget build()</text></g><!--class dart--><g id="elem_dart"><rect fill="#F1F1F1" height="48" id="dart" rx="2.5" ry="2.5" style="stroke:#181818;stroke-width:0.5;" width="60" x="1306" y="814.38"/><ellipse cx="1321" cy="830.38" fill="#ADD1B2" rx="11" ry="11" style="stroke:#181818;stroke-width:1.0;"/><path d="M1323.4731,836.5231 Q1322.8921,836.8219 1322.2529,836.9713 Q1321.6138,837.1207 1320.9082,837.1207 Q1318.4014,837.1207 1317.0815,835.4689 Q1315.7617,833.817 1315.7617,830.6959 Q1315.7617,827.5665 1317.0815,825.9147 Q1318.4014,824.2628 1320.9082,824.2628 Q1321.6138,824.2628 1322.2612,824.4122 Q1322.9087,824.5616 1323.4731,824.8605 L1323.4731,827.5831 Q1322.8423,827.0021 1322.2488,826.7323 Q1321.6553,826.4625 1321.0244,826.4625 Q1319.6797,826.4625 1318.9949,827.5292 Q1318.3101,828.5958 1318.3101,830.6959 Q1318.3101,832.7877 1318.9949,833.8544 Q1319.6797,834.921 1321.0244,834.921 Q1321.6553,834.921 1322.2488,834.6512 Q1322.8423,834.3815 1323.4731,833.8004 Z " fill="#000000"/><text fill="#000000" font-family="sans-serif" font-size="14" lengthAdjust="spacing" textLength="28" x="1335" y="835.671">dart</text><line style="stroke:#181818;stroke-width:0.5;" x1="1307" x2="1365" y1="846.38" y2="846.38"/><line style="stroke:#181818;stroke-width:0.5;" x1="1307" x2="1365" y1="854.38" y2="854.38"/></g><!--class dart--><g id="elem_dart"><rect fill="#F1F1F1" height="48" id="dart" rx="2.5" ry="2.5" style="stroke:#181818;stroke-width:0.5;" width="60" x="1658" y="814.38"/><ellipse cx="1673" cy="830.38" fill="#ADD1B2" rx="11" ry="11" style="stroke:#181818;stroke-width:1.0;"/><path d="M1675.4731,836.5231 Q1674.8921,836.8219 1674.2529,836.9713 Q1673.6138,837.1207 1672.9082,837.1207 Q1670.4014,837.1207 1669.0815,835.4689 Q1667.7617,833.817 1667.7617,830.6959 Q1667.7617,827.5665 1669.0815,825.9147 Q1670.4014,824.2628 1672.9082,824.2628 Q1673.6138,824.2628 1674.2612,824.4122 Q1674.9087,824.5616 1675.4731,824.8605 L1675.4731,827.5831 Q1674.8423,827.0021 1674.2488,826.7323 Q1673.6553,826.4625 1673.0244,826.4625 Q1671.6797,826.4625 1670.9949,827.5292 Q1670.3101,828.5958 1670.3101,830.6959 Q1670.3101,832.7877 1670.9949,833.8544 Q1671.6797,834.921 1673.0244,834.921 Q1673.6553,834.921 1674.2488,834.6512 Q1674.8423,834.3815 1675.4731,833.8004 Z " fill="#000000"/><text fill="#000000" font-family="sans-serif" font-size="14" lengthAdjust="spacing" textLength="28" x="1687" y="835.671">dart</text><line style="stroke:#181818;stroke-width:0.5;" x1="1659" x2="1717" y1="846.38" y2="846.38"/><line style="stroke:#181818;stroke-width:0.5;" x1="1659" x2="1717" y1="854.38" y2="854.38"/></g><!--class dart--><g id="elem_dart"><rect fill="#F1F1F1" height="48" id="dart" rx="2.5" ry="2.5" style="stroke:#181818;stroke-width:0.5;" width="60" x="1821" y="814.38"/><ellipse cx="1836" cy="830.38" fill="#ADD1B2" rx="11" ry="11" style="stroke:#181818;stroke-width:1.0;"/><path d="M1838.4731,836.5231 Q1837.8921,836.8219 1837.2529,836.9713 Q1836.6138,837.1207 1835.9082,837.1207 Q1833.4014,837.1207 1832.0815,835.4689 Q1830.7617,833.817 1830.7617,830.6959 Q1830.7617,827.5665 1832.0815,825.9147 Q1833.4014,824.2628 1835.9082,824.2628 Q1836.6138,824.2628 1837.2612,824.4122 Q1837.9087,824.5616 1838.4731,824.8605 L1838.4731,827.5831 Q1837.8423,827.0021 1837.2488,826.7323 Q1836.6553,826.4625 1836.0244,826.4625 Q1834.6797,826.4625 1833.9949,827.5292 Q1833.3101,828.5958 1833.3101,830.6959 Q1833.3101,832.7877 1833.9949,833.8544 Q1834.6797,834.921 1836.0244,834.921 Q1836.6553,834.921 1837.2488,834.6512 Q1837.8423,834.3815 1838.4731,833.8004 Z " fill="#000000"/><text fill="#000000" font-family="sans-serif" font-size="14" lengthAdjust="spacing" textLength="28" x="1850" y="835.671">dart</text><line style="stroke:#181818;stroke-width:0.5;" x1="1822" x2="1880" y1="846.38" y2="846.38"/><line style="stroke:#181818;stroke-width:0.5;" x1="1822" x2="1880" y1="854.38" y2="854.38"/></g><!--class dart--><g id="elem_dart"><rect fill="#F1F1F1" height="48" id="dart" rx="2.5" ry="2.5" style="stroke:#181818;stroke-width:0.5;" width="60" x="2148" y="814.38"/><ellipse cx="2163" cy="830.38" fill="#ADD1B2" rx="11" ry="11" style="stroke:#181818;stroke-width:1.0;"/><path d="M2165.4731,836.5231 Q2164.8921,836.8219 2164.2529,836.9713 Q2163.6138,837.1207 2162.9082,837.1207 Q2160.4014,837.1207 2159.0815,835.4689 Q2157.7617,833.817 2157.7617,830.6959 Q2157.7617,827.5665 2159.0815,825.9147 Q2160.4014,824.2628 2162.9082,824.2628 Q2163.6138,824.2628 2164.2612,824.4122 Q2164.9087,824.5616 2165.4731,824.8605 L2165.4731,827.5831 Q2164.8423,827.0021 2164.2488,826.7323 Q2163.6553,826.4625 2163.0244,826.4625 Q2161.6797,826.4625 2160.9949,827.5292 Q2160.3101,828.5958 2160.3101,830.6959 Q2160.3101,832.7877 2160.9949,833.8544 Q2161.6797,834.921 2163.0244,834.921 Q2163.6553,834.921 2164.2488,834.6512 Q2164.8423,834.3815 2165.4731,833.8004 Z " fill="#000000"/><text fill="#000000" font-family="sans-serif" font-size="14" lengthAdjust="spacing" textLength="28" x="2177" y="835.671">dart</text><line style="stroke:#181818;stroke-width:0.5;" x1="2149" x2="2207" y1="846.38" y2="846.38"/><line style="stroke:#181818;stroke-width:0.5;" x1="2149" x2="2207" y1="854.38" y2="854.38"/></g><!--class dart--><g id="elem_dart"><rect fill="#F1F1F1" height="48" id="dart" rx="2.5" ry="2.5" style="stroke:#181818;stroke-width:0.5;" width="60" x="1658" y="45"/><ellipse cx="1673" cy="61" fill="#ADD1B2" rx="11" ry="11" style="stroke:#181818;stroke-width:1.0;"/><path d="M1675.4731,67.1431 Q1674.8921,67.4419 1674.2529,67.5913 Q1673.6138,67.7407 1672.9082,67.7407 Q1670.4014,67.7407 1669.0815,66.0889 Q1667.7617,64.437 1667.7617,61.3159 Q1667.7617,58.1865 1669.0815,56.5347 Q1670.4014,54.8828 1672.9082,54.8828 Q1673.6138,54.8828 1674.2612,55.0322 Q1674.9087,55.1816 1675.4731,55.4805 L1675.4731,58.2031 Q1674.8423,57.6221 1674.2488,57.3523 Q1673.6553,57.0825 1673.0244,57.0825 Q1671.6797,57.0825 1670.9949,58.1492 Q1670.3101,59.2158 1670.3101,61.3159 Q1670.3101,63.4077 1670.9949,64.4744 Q1671.6797,65.541 1673.0244,65.541 Q1673.6553,65.541 1674.2488,65.2712 Q1674.8423,65.0015 1675.4731,64.4204 Z " fill="#000000"/><text fill="#000000" font-family="sans-serif" font-size="14" lengthAdjust="spacing" textLength="28" x="1687" y="66.291">dart</text><line style="stroke:#181818;stroke-width:0.5;" x1="1659" x2="1717" y1="77" y2="77"/><line style="stroke:#181818;stroke-width:0.5;" x1="1659" x2="1717" y1="85" y2="85"/></g><!--class dart--><g id="elem_dart"><rect fill="#F1F1F1" height="48" id="dart" rx="2.5" ry="2.5" style="stroke:#181818;stroke-width:0.5;" width="60" x="246" y="1015.58"/><ellipse cx="261" cy="1031.58" fill="#ADD1B2" rx="11" ry="11" style="stroke:#181818;stroke-width:1.0;"/><path d="M263.4731,1037.7231 Q262.8921,1038.0219 262.2529,1038.1713 Q261.6138,1038.3207 260.9082,1038.3207 Q258.4014,1038.3207 257.0815,1036.6689 Q255.7617,1035.017 255.7617,1031.8959 Q255.7617,1028.7665 257.0815,1027.1147 Q258.4014,1025.4628 260.9082,1025.4628 Q261.6138,1025.4628 262.2612,1025.6122 Q262.9087,1025.7616 263.4731,1026.0605 L263.4731,1028.7831 Q262.8423,1028.2021 262.2488,1027.9323 Q261.6553,1027.6625 261.0244,1027.6625 Q259.6797,1027.6625 258.9949,1028.7292 Q258.3101,1029.7958 258.3101,1031.8959 Q258.3101,1033.9877 258.9949,1035.0544 Q259.6797,1036.121 261.0244,1036.121 Q261.6553,1036.121 262.2488,1035.8512 Q262.8423,1035.5815 263.4731,1035.0004 Z " fill="#000000"/><text fill="#000000" font-family="sans-serif" font-size="14" lengthAdjust="spacing" textLength="28" x="275" y="1036.871">dart</text><line style="stroke:#181818;stroke-width:0.5;" x1="247" x2="305" y1="1047.58" y2="1047.58"/><line style="stroke:#181818;stroke-width:0.5;" x1="247" x2="305" y1="1055.58" y2="1055.58"/></g><!--class dart::AuthService--><g id="elem_dart::AuthService"><rect codeLine="306" fill="#F1F1F1" height="146.9297" id="dart::AuthService" rx="2.5" ry="2.5" style="stroke:#181818;stroke-width:0.5;" width="310" x="2681" y="345.13"/><ellipse cx="2773.25" cy="361.13" fill="#ADD1B2" rx="11" ry="11" style="stroke:#181818;stroke-width:1.0;"/><path d="M2775.7231,367.2731 Q2775.1421,367.5719 2774.5029,367.7213 Q2773.8638,367.8707 2773.1582,367.8707 Q2770.6514,367.8707 2769.3315,366.2189 Q2768.0117,364.567 2768.0117,361.4459 Q2768.0117,358.3165 2769.3315,356.6647 Q2770.6514,355.0128 2773.1582,355.0128 Q2773.8638,355.0128 2774.5112,355.1622 Q2775.1587,355.3116 2775.7231,355.6105 L2775.7231,358.3331 Q2775.0923,357.7521 2774.4988,357.4823 Q2773.9053,357.2125 2773.2744,357.2125 Q2771.9297,357.2125 2771.2449,358.2792 Q2770.5601,359.3458 2770.5601,361.4459 Q2770.5601,363.5377 2771.2449,364.6044 Q2771.9297,365.671 2773.2744,365.671 Q2773.9053,365.671 2774.4988,365.4012 Q2775.0923,365.1315 2775.7231,364.5504 Z " fill="#000000"/><text fill="#000000" font-family="sans-serif" font-size="14" lengthAdjust="spacing" textLength="117" x="2793.75" y="366.421">dart::AuthService</text><line style="stroke:#181818;stroke-width:0.5;" x1="2682" x2="2990" y1="377.13" y2="377.13"/><rect fill="none" height="6" style="stroke:#C82930;stroke-width:1.0;" width="6" x="2689" y="387.8741"/><text fill="#000000" font-family="sans-serif" font-size="14" lengthAdjust="spacing" textLength="133" x="2701" y="394.6652">FirebaseAuth _auth</text><ellipse cx="2692" cy="407.3624" fill="none" rx="3" ry="3" style="stroke:#038048;stroke-width:1.0;"/><text fill="#000000" font-family="sans-serif" font-size="14" lengthAdjust="spacing" textLength="236" x="2701" y="411.1534">Stream&lt;User?&gt; authStateChanges</text><line style="stroke:#181818;stroke-width:0.5;" x1="2682" x2="2990" y1="418.1066" y2="418.1066"/><ellipse cx="2692" cy="431.8507" fill="#84BE84" rx="3" ry="3" style="stroke:#038048;stroke-width:1.0;"/><text fill="#000000" font-family="sans-serif" font-size="14" lengthAdjust="spacing" textLength="284" x="2701" y="435.6417">dynamic registerWithEmailAndPassword()</text><ellipse cx="2692" cy="448.339" fill="#84BE84" rx="3" ry="3" style="stroke:#038048;stroke-width:1.0;"/><text fill="#000000" font-family="sans-serif" font-size="14" lengthAdjust="spacing" textLength="273" x="2701" y="452.13">dynamic signInWithEmailAndPassword()</text><ellipse cx="2692" cy="464.8273" fill="#84BE84" rx="3" ry="3" style="stroke:#038048;stroke-width:1.0;"/><text fill="#000000" font-family="sans-serif" font-size="14" lengthAdjust="spacing" textLength="125" x="2701" y="468.6183">dynamic signOut()</text><rect fill="#F24D5C" height="6" style="stroke:#C82930;stroke-width:1.0;" width="6" x="2689" y="478.3155"/><text fill="#000000" font-family="sans-serif" font-size="14" lengthAdjust="spacing" textLength="211" x="2701" y="485.1066">String _getAuthErrorMessage()</text></g><!--class dart--><g id="elem_dart"><rect fill="#F1F1F1" height="48" id="dart" rx="2.5" ry="2.5" style="stroke:#181818;stroke-width:0.5;" width="60" x="3009" y="394.59"/><ellipse cx="3024" cy="410.59" fill="#ADD1B2" rx="11" ry="11" style="stroke:#181818;stroke-width:1.0;"/><path d="M3026.4731,416.7331 Q3025.8921,417.0319 3025.2529,417.1813 Q3024.6138,417.3307 3023.9082,417.3307 Q3021.4014,417.3307 3020.0815,415.6789 Q3018.7617,414.027 3018.7617,410.9059 Q3018.7617,407.7765 3020.0815,406.1247 Q3021.4014,404.4728 3023.9082,404.4728 Q3024.6138,404.4728 3025.2612,404.6222 Q3025.9087,404.7716 3026.4731,405.0705 L3026.4731,407.7931 Q3025.8423,407.2121 3025.2488,406.9423 Q3024.6553,406.6725 3024.0244,406.6725 Q3022.6797,406.6725 3021.9949,407.7392 Q3021.3101,408.8058 3021.3101,410.9059 Q3021.3101,412.9977 3021.9949,414.0644 Q3022.6797,415.131 3024.0244,415.131 Q3024.6553,415.131 3025.2488,414.8612 Q3025.8423,414.5915 3026.4731,414.0104 Z " fill="#000000"/><text fill="#000000" font-family="sans-serif" font-size="14" lengthAdjust="spacing" textLength="28" x="3038" y="415.881">dart</text><line style="stroke:#181818;stroke-width:0.5;" x1="3010" x2="3068" y1="426.59" y2="426.59"/><line style="stroke:#181818;stroke-width:0.5;" x1="3010" x2="3068" y1="434.59" y2="434.59"/></g><!--class dart--><g id="elem_dart"><rect fill="#F1F1F1" height="48" id="dart" rx="2.5" ry="2.5" style="stroke:#181818;stroke-width:0.5;" width="60" x="3067" y="814.38"/><ellipse cx="3082" cy="830.38" fill="#ADD1B2" rx="11" ry="11" style="stroke:#181818;stroke-width:1.0;"/><path d="M3084.4731,836.5231 Q3083.8921,836.8219 3083.2529,836.9713 Q3082.6138,837.1207 3081.9082,837.1207 Q3079.4014,837.1207 3078.0815,835.4689 Q3076.7617,833.817 3076.7617,830.6959 Q3076.7617,827.5665 3078.0815,825.9147 Q3079.4014,824.2628 3081.9082,824.2628 Q3082.6138,824.2628 3083.2612,824.4122 Q3083.9087,824.5616 3084.4731,824.8605 L3084.4731,827.5831 Q3083.8423,827.0021 3083.2488,826.7323 Q3082.6553,826.4625 3082.0244,826.4625 Q3080.6797,826.4625 3079.9949,827.5292 Q3079.3101,828.5958 3079.3101,830.6959 Q3079.3101,832.7877 3079.9949,833.8544 Q3080.6797,834.921 3082.0244,834.921 Q3082.6553,834.921 3083.2488,834.6512 Q3083.8423,834.3815 3084.4731,833.8004 Z " fill="#000000"/><text fill="#000000" font-family="sans-serif" font-size="14" lengthAdjust="spacing" textLength="28" x="3096" y="835.671">dart</text><line style="stroke:#181818;stroke-width:0.5;" x1="3068" x2="3126" y1="846.38" y2="846.38"/><line style="stroke:#181818;stroke-width:0.5;" x1="3068" x2="3126" y1="854.38" y2="854.38"/></g><!--class dart::PosePainter--><g id="elem_dart::PosePainter"><rect codeLine="318" fill="#F1F1F1" height="212.8828" id="dart::PosePainter" rx="2.5" ry="2.5" style="stroke:#181818;stroke-width:0.5;" width="266" x="2216" y="312.15"/><ellipse cx="2286.75" cy="328.15" fill="#ADD1B2" rx="11" ry="11" style="stroke:#181818;stroke-width:1.0;"/><path d="M2289.2231,334.2931 Q2288.6421,334.5919 2288.0029,334.7413 Q2287.3638,334.8907 2286.6582,334.8907 Q2284.1514,334.8907 2282.8315,333.2389 Q2281.5117,331.587 2281.5117,328.4659 Q2281.5117,325.3365 2282.8315,323.6847 Q2284.1514,322.0328 2286.6582,322.0328 Q2287.3638,322.0328 2288.0112,322.1822 Q2288.6587,322.3316 2289.2231,322.6305 L2289.2231,325.3531 Q2288.5923,324.7721 2287.9988,324.5023 Q2287.4053,324.2325 2286.7744,324.2325 Q2285.4297,324.2325 2284.7449,325.2992 Q2284.0601,326.3658 2284.0601,328.4659 Q2284.0601,330.5577 2284.7449,331.6244 Q2285.4297,332.691 2286.7744,332.691 Q2287.4053,332.691 2287.9988,332.4212 Q2288.5923,332.1515 2289.2231,331.5704 Z " fill="#000000"/><text fill="#000000" font-family="sans-serif" font-size="14" lengthAdjust="spacing" textLength="116" x="2307.25" y="333.441">dart::PosePainter</text><line style="stroke:#181818;stroke-width:0.5;" x1="2217" x2="2481" y1="344.15" y2="344.15"/><ellipse cx="2227" cy="357.8941" fill="none" rx="3" ry="3" style="stroke:#038048;stroke-width:1.0;"/><text fill="#000000" font-family="sans-serif" font-size="14" lengthAdjust="spacing" textLength="121" x="2236" y="361.6852">List&lt;Pose&gt; poses</text><ellipse cx="2227" cy="374.3824" fill="none" rx="3" ry="3" style="stroke:#038048;stroke-width:1.0;"/><text fill="#000000" font-family="sans-serif" font-size="14" lengthAdjust="spacing" textLength="154" x="2236" y="378.1734">Size imageSizeUpright</text><ellipse cx="2227" cy="390.8707" fill="none" rx="3" ry="3" style="stroke:#038048;stroke-width:1.0;"/><text fill="#000000" font-family="sans-serif" font-size="14" lengthAdjust="spacing" textLength="195" x="2236" y="394.6617">InputImageRotation rotation</text><ellipse cx="2227" cy="407.359" fill="none" rx="3" ry="3" style="stroke:#038048;stroke-width:1.0;"/><text fill="#000000" font-family="sans-serif" font-size="14" lengthAdjust="spacing" textLength="240" x="2236" y="411.15">CameraLensDirection lensDirection</text><rect fill="none" height="6" style="stroke:#C82930;stroke-width:1.0;" width="6" x="2224" y="420.8473"/><text fill="#000000" font-family="sans-serif" font-size="14" lengthAdjust="spacing" textLength="101" x="2236" y="427.6383">Paint _leftPaint</text><rect fill="none" height="6" style="stroke:#C82930;stroke-width:1.0;" width="6" x="2224" y="437.3355"/><text fill="#000000" font-family="sans-serif" font-size="14" lengthAdjust="spacing" textLength="112" x="2236" y="444.1266">Paint _rightPaint</text><rect fill="none" height="6" style="stroke:#C82930;stroke-width:1.0;" width="6" x="2224" y="453.8238"/><text fill="#000000" font-family="sans-serif" font-size="14" lengthAdjust="spacing" textLength="110" x="2236" y="460.6148">Paint _jointPaint</text><line style="stroke:#181818;stroke-width:0.5;" x1="2217" x2="2481" y1="467.568" y2="467.568"/><ellipse cx="2227" cy="481.3121" fill="#84BE84" rx="3" ry="3" style="stroke:#038048;stroke-width:1.0;"/><text fill="#000000" font-family="sans-serif" font-size="14" lengthAdjust="spacing" textLength="78" x="2236" y="485.1031">void paint()</text><rect fill="#F24D5C" height="6" style="stroke:#C82930;stroke-width:1.0;" width="6" x="2224" y="494.8004"/><text fill="#000000" font-family="sans-serif" font-size="14" lengthAdjust="spacing" textLength="141" x="2236" y="501.5914">double _coverScale()</text><ellipse cx="2227" cy="514.2887" fill="#84BE84" rx="3" ry="3" style="stroke:#038048;stroke-width:1.0;"/><text fill="#000000" font-family="sans-serif" font-size="14" lengthAdjust="spacing" textLength="144" x="2236" y="518.0797">bool shouldRepaint()</text></g><!--class dart--><g id="elem_dart"><rect fill="#F1F1F1" height="48" id="dart" rx="2.5" ry="2.5" style="stroke:#181818;stroke-width:0.5;" width="60" x="2500" y="394.59"/><ellipse cx="2515" cy="410.59" fill="#ADD1B2" rx="11" ry="11" style="stroke:#181818;stroke-width:1.0;"/><path d="M2517.4731,416.7331 Q2516.8921,417.0319 2516.2529,417.1813 Q2515.6138,417.3307 2514.9082,417.3307 Q2512.4014,417.3307 2511.0815,415.6789 Q2509.7617,414.027 2509.7617,410.9059 Q2509.7617,407.7765 2511.0815,406.1247 Q2512.4014,404.4728 2514.9082,404.4728 Q2515.6138,404.4728 2516.2612,404.6222 Q2516.9087,404.7716 2517.4731,405.0705 L2517.4731,407.7931 Q2516.8423,407.2121 2516.2488,406.9423 Q2515.6553,406.6725 2515.0244,406.6725 Q2513.6797,406.6725 2512.9949,407.7392 Q2512.3101,408.8058 2512.3101,410.9059 Q2512.3101,412.9977 2512.9949,414.0644 Q2513.6797,415.131 2515.0244,415.131 Q2515.6553,415.131 2516.2488,414.8612 Q2516.8423,414.5915 2517.4731,414.0104 Z " fill="#000000"/><text fill="#000000" font-family="sans-serif" font-size="14" lengthAdjust="spacing" textLength="28" x="2529" y="415.881">dart</text><line style="stroke:#181818;stroke-width:0.5;" x1="2501" x2="2559" y1="426.59" y2="426.59"/><line style="stroke:#181818;stroke-width:0.5;" x1="2501" x2="2559" y1="434.59" y2="434.59"/></g><!--class dart--><g id="elem_dart"><rect fill="#F1F1F1" height="48" id="dart" rx="2.5" ry="2.5" style="stroke:#181818;stroke-width:0.5;" width="60" x="2619" y="814.38"/><ellipse cx="2634" cy="830.38" fill="#ADD1B2" rx="11" ry="11" style="stroke:#181818;stroke-width:1.0;"/><path d="M2636.4731,836.5231 Q2635.8921,836.8219 2635.2529,836.9713 Q2634.6138,837.1207 2633.9082,837.1207 Q2631.4014,837.1207 2630.0815,835.4689 Q2628.7617,833.817 2628.7617,830.6959 Q2628.7617,827.5665 2630.0815,825.9147 Q2631.4014,824.2628 2633.9082,824.2628 Q2634.6138,824.2628 2635.2612,824.4122 Q2635.9087,824.5616 2636.4731,824.8605 L2636.4731,827.5831 Q2635.8423,827.0021 2635.2488,826.7323 Q2634.6553,826.4625 2634.0244,826.4625 Q2632.6797,826.4625 2631.9949,827.5292 Q2631.3101,828.5958 2631.3101,830.6959 Q2631.3101,832.7877 2631.9949,833.8544 Q2632.6797,834.921 2634.0244,834.921 Q2634.6553,834.921 2635.2488,834.6512 Q2635.8423,834.3815 2636.4731,833.8004 Z " fill="#000000"/><text fill="#000000" font-family="sans-serif" font-size="14" lengthAdjust="spacing" textLength="28" x="2648" y="835.671">dart</text><line style="stroke:#181818;stroke-width:0.5;" x1="2620" x2="2678" y1="846.38" y2="846.38"/><line style="stroke:#181818;stroke-width:0.5;" x1="2620" x2="2678" y1="854.38" y2="854.38"/></g><!--class dart--><g id="elem_dart"><rect fill="#F1F1F1" height="48" id="dart" rx="2.5" ry="2.5" style="stroke:#181818;stroke-width:0.5;" width="60" x="2500" y="45"/><ellipse cx="2515" cy="61" fill="#ADD1B2" rx="11" ry="11" style="stroke:#181818;stroke-width:1.0;"/><path d="M2517.4731,67.1431 Q2516.8921,67.4419 2516.2529,67.5913 Q2515.6138,67.7407 2514.9082,67.7407 Q2512.4014,67.7407 2511.0815,66.0889 Q2509.7617,64.437 2509.7617,61.3159 Q2509.7617,58.1865 2511.0815,56.5347 Q2512.4014,54.8828 2514.9082,54.8828 Q2515.6138,54.8828 2516.2612,55.0322 Q2516.9087,55.1816 2517.4731,55.4805 L2517.4731,58.2031 Q2516.8423,57.6221 2516.2488,57.3523 Q2515.6553,57.0825 2515.0244,57.0825 Q2513.6797,57.0825 2512.9949,58.1492 Q2512.3101,59.2158 2512.3101,61.3159 Q2512.3101,63.4077 2512.9949,64.4744 Q2513.6797,65.541 2515.0244,65.541 Q2515.6553,65.541 2516.2488,65.2712 Q2516.8423,65.0015 2517.4731,64.4204 Z " fill="#000000"/><text fill="#000000" font-family="sans-serif" font-size="14" lengthAdjust="spacing" textLength="28" x="2529" y="66.291">dart</text><line style="stroke:#181818;stroke-width:0.5;" x1="2501" x2="2559" y1="77" y2="77"/><line style="stroke:#181818;stroke-width:0.5;" x1="2501" x2="2559" y1="85" y2="85"/></g><!--class dart::async--><g id="elem_dart::async"><rect fill="#F1F1F1" height="48" id="dart::async" rx="2.5" ry="2.5" style="stroke:#181818;stroke-width:0.5;" width="106" x="2357" y="814.38"/><ellipse cx="2372" cy="830.38" fill="#ADD1B2" rx="11" ry="11" style="stroke:#181818;stroke-width:1.0;"/><path d="M2374.4731,836.5231 Q2373.8921,836.8219 2373.2529,836.9713 Q2372.6138,837.1207 2371.9082,837.1207 Q2369.4014,837.1207 2368.0815,835.4689 Q2366.7617,833.817 2366.7617,830.6959 Q2366.7617,827.5665 2368.0815,825.9147 Q2369.4014,824.2628 2371.9082,824.2628 Q2372.6138,824.2628 2373.2612,824.4122 Q2373.9087,824.5616 2374.4731,824.8605 L2374.4731,827.5831 Q2373.8423,827.0021 2373.2488,826.7323 Q2372.6553,826.4625 2372.0244,826.4625 Q2370.6797,826.4625 2369.9949,827.5292 Q2369.3101,828.5958 2369.3101,830.6959 Q2369.3101,832.7877 2369.9949,833.8544 Q2370.6797,834.921 2372.0244,834.921 Q2372.6553,834.921 2373.2488,834.6512 Q2373.8423,834.3815 2374.4731,833.8004 Z " fill="#000000"/><text fill="#000000" font-family="sans-serif" font-size="14" lengthAdjust="spacing" textLength="74" x="2386" y="835.671">dart::async</text><line style="stroke:#181818;stroke-width:0.5;" x1="2358" x2="2462" y1="846.38" y2="846.38"/><line style="stroke:#181818;stroke-width:0.5;" x1="2358" x2="2462" y1="854.38" y2="854.38"/></g><!--class dart::ui--><g id="elem_dart::ui"><rect fill="#F1F1F1" height="48" id="dart::ui" rx="2.5" ry="2.5" style="stroke:#181818;stroke-width:0.5;" width="81" x="2489.5" y="814.38"/><ellipse cx="2504.5" cy="830.38" fill="#ADD1B2" rx="11" ry="11" style="stroke:#181818;stroke-width:1.0;"/><path d="M2506.9731,836.5231 Q2506.3921,836.8219 2505.7529,836.9713 Q2505.1138,837.1207 2504.4082,837.1207 Q2501.9014,837.1207 2500.5815,835.4689 Q2499.2617,833.817 2499.2617,830.6959 Q2499.2617,827.5665 2500.5815,825.9147 Q2501.9014,824.2628 2504.4082,824.2628 Q2505.1138,824.2628 2505.7612,824.4122 Q2506.4087,824.5616 2506.9731,824.8605 L2506.9731,827.5831 Q2506.3423,827.0021 2505.7488,826.7323 Q2505.1553,826.4625 2504.5244,826.4625 Q2503.1797,826.4625 2502.4949,827.5292 Q2501.8101,828.5958 2501.8101,830.6959 Q2501.8101,832.7877 2502.4949,833.8544 Q2503.1797,834.921 2504.5244,834.921 Q2505.1553,834.921 2505.7488,834.6512 Q2506.3423,834.3815 2506.9731,833.8004 Z " fill="#000000"/><text fill="#000000" font-family="sans-serif" font-size="14" lengthAdjust="spacing" textLength="49" x="2518.5" y="835.671">dart::ui</text><line style="stroke:#181818;stroke-width:0.5;" x1="2490.5" x2="2569.5" y1="846.38" y2="846.38"/><line style="stroke:#181818;stroke-width:0.5;" x1="2490.5" x2="2569.5" y1="854.38" y2="854.38"/></g><!--reverse link dart to dart--><g id="link_dart_dart"><path codeLine="223" d="M1135.3138,69.6209 C1087.2738,70.6109 1023.41,79.49 980,129 C914.21,204.03 924.21,334.48 934.59,390.63 " fill="none" id="dart-backto-dart" style="stroke:#181818;stroke-width:1.0;"/><polygon fill="none" points="1153.31,69.25,1135.1902,63.6221,1135.4374,75.6196,1153.31,69.25" style="stroke:#181818;stroke-width:1.0;"/></g><!--reverse link dart to dart--><g id="link_dart_dart"><path codeLine="244" d="M1135.3234,70.145 C1089.5134,71.915 1031.33,81.87 990,129 C924.21,204.03 934.21,334.48 940.04,390.63 " fill="none" id="dart-backto-dart-1" style="stroke:#181818;stroke-width:1.0;"/><polygon fill="none" points="1153.31,69.45,1135.0918,64.1494,1135.5551,76.1405,1153.31,69.45" style="stroke:#181818;stroke-width:1.0;"/></g><!--reverse link dart to dart--><g id="link_dart_dart"><path codeLine="241" d="M949.4992,458.0437 C959.0592,513.2037 969.61,628.1 899,689.19 C874.63,710.27 344.78,677.85 319,697.19 C283.97,723.46 276.6,777.71 275.54,810.49 " fill="none" id="dart-backto-dart-2" style="stroke:#181818;stroke-width:1.0;"/><polygon fill="none" points="947.45,446.22,944.5334,452.8149,949.4992,458.0437,952.4159,451.4488,947.45,446.22" style="stroke:#181818;stroke-width:1.0;"/></g><!--reverse link dart to dart--><g id="link_dart_dart"><path codeLine="242" d="M947.8125,458.2854 C955.1425,506.8054 969.55,600.47 985,689.19 C992.41,731.75 1001.9,781.01 1007.71,810.65 " fill="none" id="dart-backto-dart-3" style="stroke:#181818;stroke-width:1.0;"/><polygon fill="none" points="946.02,446.42,942.9611,452.9502,947.8125,458.2854,950.8714,451.7552,946.02,446.42" style="stroke:#181818;stroke-width:1.0;"/></g><!--reverse link dart to dart--><g id="link_dart_dart"><path codeLine="243" d="M949.5127,458.0531 C959.0927,513.2331 969.67,628.16 899,689.19 C884.89,701.37 244.16,687.9 228,697.19 C185.44,721.64 162.04,777.07 151.34,810.44 " fill="none" id="dart-backto-dart-4" style="stroke:#181818;stroke-width:1.0;"/><polygon fill="none" points="947.46,446.23,944.5453,452.8258,949.5127,458.0531,952.4274,451.4573,947.46,446.23" style="stroke:#181818;stroke-width:1.0;"/></g><!--reverse link dart to dart--><g id="link_dart_dart"><path codeLine="251" d="M1246.8793,69.1412 C1344.3293,68.2812 1581.93,72 1640,129 C1711.58,199.26 1698.16,333.47 1690.71,390.68 " fill="none" id="dart-backto-dart-5" style="stroke:#181818;stroke-width:1.0;"/><polygon fill="none" points="1228.88,69.3,1246.9322,75.1409,1246.8264,63.1414,1228.88,69.3" style="stroke:#181818;stroke-width:1.0;"/></g><!--reverse link dart to dart--><g id="link_dart_dart"><path codeLine="289" d="M1246.9891,69.1585 C1346.1691,68.1585 1591.01,71.1 1650,129 C1721.58,199.26 1708.16,333.47 1696.09,390.68 " fill="none" id="dart-backto-dart-6" style="stroke:#181818;stroke-width:1.0;"/><polygon fill="none" points="1228.99,69.34,1247.0496,75.1582,1246.9286,63.1588,1228.99,69.34" style="stroke:#181818;stroke-width:1.0;"/></g><!--reverse link dart to dart--><g id="link_dart_dart"><path codeLine="283" d="M1692.4706,458.3457 C1697.4606,510.6057 1699.98,615.48 1645,689.19 C1577.5,779.68 1440.3,817.44 1373.81,830.93 " fill="none" id="dart-backto-dart-7" style="stroke:#181818;stroke-width:1.0;"/><polygon fill="none" points="1691.33,446.4,1687.9184,452.753,1692.4706,458.3457,1695.8822,451.9926,1691.33,446.4" style="stroke:#181818;stroke-width:1.0;"/></g><!--reverse link dart to dart--><g id="link_dart_dart"><path codeLine="284" d="M1695.5058,458.4178 C1704.9758,513.7078 1715.17,627.95 1645,689.19 C1630.05,702.23 1307.24,692.34 1288,697.19 C1197.06,720.11 1101.95,777.21 1050.86,811.04 " fill="none" id="dart-backto-dart-8" style="stroke:#181818;stroke-width:1.0;"/><polygon fill="none" points="1693.48,446.59,1690.5503,453.1792,1695.5058,458.4178,1698.4355,451.8286,1693.48,446.59" style="stroke:#181818;stroke-width:1.0;"/></g><!--reverse link dart to dart--><g id="link_dart_dart"><path codeLine="285" d="M1688,458.36 C1688,533.74 1688,735.14 1688,810.57 " fill="none" id="dart-backto-dart-9" style="stroke:#181818;stroke-width:1.0;"/><polygon fill="none" points="1688,446.36,1684,452.36,1688,458.36,1692,452.36,1688,446.36" style="stroke:#181818;stroke-width:1.0;"/></g><!--reverse link dart to dart--><g id="link_dart_dart"><path codeLine="286" d="M1687.8995,458.5193 C1688.4395,508.5593 1694.04,606.29 1731,689.19 C1734.1,696.14 1794.74,769.66 1828.6,810.46 " fill="none" id="dart-backto-dart-10" style="stroke:#181818;stroke-width:1.0;"/><polygon fill="none" points="1687.77,446.52,1683.835,452.5628,1687.8995,458.5193,1691.8345,452.4765,1687.77,446.52" style="stroke:#181818;stroke-width:1.0;"/></g><!--reverse link dart to dart::async--><g id="link_dart_dart::async"><path codeLine="287" d="M1680.5142,458.0243 C1670.9742,513.1643 1660.46,628.01 1731,689.19 C1741.39,698.2 2213.01,692.68 2226,697.19 C2292.03,720.07 2353.3,776.61 2385.78,810.49 " fill="none" id="dart-backto-dart::async" style="stroke:#181818;stroke-width:1.0;"/><polygon fill="none" points="1682.56,446.2,1677.5957,451.4302,1680.5142,458.0243,1685.4786,452.7941,1682.56,446.2" style="stroke:#181818;stroke-width:1.0;"/></g><!--reverse link dart to dart--><g id="link_dart_dart"><path codeLine="288" d="M1680.6547,458.2846 C1671.4247,513.3046 1661.61,627.07 1731,689.19 C1744.92,701.65 1880.92,692.44 1899,697.19 C1991.28,721.4 2088.55,778.59 2140.33,811.96 " fill="none" id="dart-backto-dart-11" style="stroke:#181818;stroke-width:1.0;"/><polygon fill="none" points="1682.64,446.45,1677.7025,451.7055,1680.6547,458.2846,1685.5922,453.0291,1682.64,446.45" style="stroke:#181818;stroke-width:1.0;"/></g><!--reverse link dart to dart--><g id="link_dart_dart"><path codeLine="290" d="M1688,114.99 C1688,179.91 1688,326.21 1688,390.86 " fill="none" id="dart-backto-dart-12" style="stroke:#181818;stroke-width:1.0;"/><polygon fill="none" points="1688,96.99,1682,114.99,1694,114.99,1688,96.99" style="stroke:#181818;stroke-width:1.0;"/></g><!--reverse link dart to dart--><g id="link_dart_dart"><path codeLine="304" d="M276,878.25 C276,916.37 276,973.76 276,1011.82 " fill="none" id="dart-backto-dart-13" style="stroke:#181818;stroke-width:1.0;"/><polygon fill="none" points="276,866.25,272,872.25,276,878.25,280,872.25,276,866.25" style="stroke:#181818;stroke-width:1.0;"/></g><!--reverse link dart to dart--><g id="link_dart_dart"><path codeLine="315" d="M3044.3694,458.2461 C3054.8294,533.6261 3082.81,735.14 3093.28,810.57 " fill="none" id="dart-backto-dart-14" style="stroke:#181818;stroke-width:1.0;"/><polygon fill="none" points="3042.72,446.36,3039.5826,452.8528,3044.3694,458.2461,3047.5067,451.7533,3042.72,446.36" style="stroke:#181818;stroke-width:1.0;"/></g><!--reverse link dart to dart::async--><g id="link_dart_dart::async"><path codeLine="316" d="M3046.4879,458.034 C3056.0379,513.174 3066.56,628.04 2996,689.19 C2974.21,708.07 2501.27,681.62 2477,697.19 C2437.83,722.3 2421.03,777.23 2414.23,810.38 " fill="none" id="dart-backto-dart::async-1" style="stroke:#181818;stroke-width:1.0;"/><polygon fill="none" points="3044.44,446.21,3041.5226,452.8046,3046.4879,458.034,3049.4053,451.4394,3044.44,446.21" style="stroke:#181818;stroke-width:1.0;"/></g><!--reverse link dart to dart::ui--><g id="link_dart_dart::ui"><path codeLine="331" d="M2527.6597,458.354 C2525.2697,533.734 2525.65,735.14 2528.04,810.57 " fill="none" id="dart-backto-dart::ui" style="stroke:#181818;stroke-width:1.0;"/><polygon fill="none" points="2528.04,446.36,2523.8519,452.2302,2527.6597,458.354,2531.8479,452.4837,2528.04,446.36" style="stroke:#181818;stroke-width:1.0;"/></g><!--reverse link dart to dart::ui--><g id="link_dart_dart::ui"><path codeLine="334" d="M2532.3403,458.354 C2534.7303,533.734 2534.35,735.14 2531.96,810.57 " fill="none" id="dart-backto-dart::ui-1" style="stroke:#181818;stroke-width:1.0;"/><polygon fill="none" points="2531.96,446.36,2528.1521,452.4837,2532.3403,458.354,2536.1481,452.2302,2531.96,446.36" style="stroke:#181818;stroke-width:1.0;"/></g><!--reverse link dart to dart--><g id="link_dart_dart"><path codeLine="332" d="M2537.2914,458.237 C2546.4414,513.177 2556.14,626.78 2487,689.19 C2475.19,699.85 2358.79,691.3 2344,697.19 C2283.19,721.38 2228.56,777.17 2199.66,810.62 " fill="none" id="dart-backto-dart-15" style="stroke:#181818;stroke-width:1.0;"/><polygon fill="none" points="2535.32,446.4,2532.36,452.9756,2537.2914,458.237,2540.2513,451.6613,2535.32,446.4" style="stroke:#181818;stroke-width:1.0;"/></g><!--reverse link dart to dart--><g id="link_dart_dart"><path codeLine="333" d="M2540.9157,457.9014 C2562.3757,533.2814 2619.88,735.14 2641.36,810.57 " fill="none" id="dart-backto-dart-16" style="stroke:#181818;stroke-width:1.0;"/><polygon fill="none" points="2537.63,446.36,2535.4257,453.2259,2540.9157,457.9014,2543.12,451.0355,2537.63,446.36" style="stroke:#181818;stroke-width:1.0;"/></g><!--reverse link dart to dart--><g id="link_dart_dart"><path codeLine="335" d="M2530,114.99 C2530,179.91 2530,326.21 2530,390.86 " fill="none" id="dart-backto-dart-17" style="stroke:#181818;stroke-width:1.0;"/><polygon fill="none" points="2530,96.99,2524,114.99,2536,114.99,2530,96.99" style="stroke:#181818;stroke-width:1.0;"/></g><!--SRC=[pLjVR-Eu4N_tfo3yqXPfsjljcn4ao3gRtM2Tso1ExXu5Hg9jDfIe8wbuVTS5-Y7w2Vj9EaDI5YNBjlmdsGA7ZJKS3eV3cTyC_voHEJ6IF4bZP4eIhbXikCnwcXcIqPJfdCPip7Agg96A30Oz_Smp_4n99XEcMKxU_HGG5SsUaVZ-frxlJ-I___btb__87Pqoycv0Xb8nydTo2vA5XX-FXiFVZb9wlLXGhKb_8WfZc8ecgHuCSYLVUC8K_AI5cKNbzzyIginWS0cqEq_gapzwX9m-IIb8nFL8qeHdKo2TM5ADyY9vGi1AdlJdl_I-zthbo8E1Ll5WC955bb2qvs0GpsWsPL4c3P_mvUX3I_tP4_lax5-dfmVetsw12Qpg4zKiaZdgedtFApQXXJ3NllMhQtGs-4CRq3l-JauQpOHcYOAfR-JXKcziZmkbM6Rk13KJgTBGSdjfBAtHoZun-52KUzaHpq3g19muaBg6mu_I5Dzkr08z4rP7WZoQKR7GN4UMwCKyp1JJCocI5PCcidWIZ1XLPCyt6P2VkE1cSHURM_gjZNF6QDA9yJbZR6mKvTEPkUNP5PksSQNWBTcqvBj71mNcDauDyn5T6AaMQencVRT6ioN3-pKC-hU2cY-W_nNBpMoDvfRfGIej7tE5EY7VzpqNwECtfcAksQLll6SQdCijrWau1T6eBtxSqlmCh016-oj95W2BF3ud4qPD0Kkyz_XtiXhRujmQFm6440pmfQKfuTgqj_30NM2Q46qDFejeeR-qovdn_5gmRn08OEewoobEO0Hua5BrJAAK9mqHxGOcrXY_ivsOV-LcDfGGgDyQUfwkwHVvZfVZqVrkFSReOuqkPKQujP5p9UVPHeR7lD6CtWIeKsJcdkNQvOg3VFPXaRF0KtcMi7fKZS0ppaBkS_92HS5qgz6HmGNN-cOAXS4B6x7fFGNIY4qwyzwZUws2_8wJbIkPSJS1lRuZOb13KrQahUbsHw6jovZQyWKIJgeZpRI6w8aihSmmj-En8zj2no-aGvWBOfEh_oA5Pkh64gweOGyyXRm1_u3PqpnWOrwfqY6WMlDrYcU0kiEkVVazOInvel7pihZ9ASz6SlwXIVjCKssxV5L3AYQXebXpo4Sbra7aHOMHwq3KI23RO3bf68N4CbzWsA-FbjBCQ2CiYoPSi9gT7w7Xpj5N3KsAcg5PIha8lW5QeK9O_0mrSCtwiO8viUJIU5DV42XTGwje6uaUFoyWTwFt3zEGDhUqBzEjPbatSLWNFyNRnMMU-tdPc1-2mefUCHqhRWkOSn9Rabs4NtaoXSh-gU0YQIrPvvO1VHUAUJQNwjaFD8P0Pm8Mo8beZPqLlNgzNiRcELfevzt0-m71sXOs0UCP4mB-VfPW_uFs0c0KnZAifFCyqYYshABpt8xItPBM7cTbltFl5vQwXs4dXTXWr-rgxpZTgEne1_VR7fkaoanogAViDe-6FbjcCmC_60nOmiqowbrRYT3GuiD-REdBkCSbMsbzexNRNUi3pH2jI0nN-vEGJrHyOOkpQzW4sPPp4k6626Z8y02r5ae0PCBAIqaXc29HW8j3Ox5_7IS4yHOEZusRcUOr9e_EaKTPkmj7bI1TspHowZ4KEEYB8srmvMDPDAnDjlbCc-7xRweHYgEGY28ifylTQfln-yUC-NsdiWtQ84SC1efD0RAXiIRotbDhA71TPFQ82vBi53PMlt0shy2XtkEjKBtx50umHbGNTGmii3LJHTZ0cOFIO9sa4tC8CLtu4MXgV7MGs88-NKQOjx2MzLx4b9Bg5YeZNmXkmAHoPNR4fTsNzTK0wRYg_1WasdaEdQ9Eo2dFwi96IEeEFW7xcoBF5ittdNqK2Fb_G9iT0jPI8ZkdlKArcpLUEKWFL-97XcSdxJkvfhqrcG9xS6FoQUcEFtxNt5NTxfEjMGtxjso3AlAROir6_VQSOLI927367M7fcPoF-JIxoPQHNa7ljjW-cZDtqFcGev9_3CYGvdZIXgSauCzIBV3SXAaN7ZEyHtLpr4SwFPcv8PO_wbFp2hJuNAtbhRRTE-XwqBIZcgmmuU658ZOnlo2Gx4eADeS7ofYT_ESr5yObBdUveAKo251XWVjRmPHDcNWyYOc16YYVyNTgGhw9RNhGBhjPn6iSjq86fdak5cvKtQXROvc1okaLG9dnAT97JMJ3vZEZYQzgwmtN_W2ufUcEycmuutbRsmCNE-_TTr-SrHi5xIF6tHNR5OeyBRWS3jUo_whwx7h3SLnLU6Q43qNt4ptB-r9v8x_qk-EU5UoiyPRGnPkOs45axQCk66B2usWDl3gV1ZVxln74xJcvevWiQeeDWS_Ph2eJ0TtY1YbyRtFFOYZQtRtLscgz2PSQC2asBFbOtO3vwrRtoEGwrMD_Z- -03s-j0UqmfhmVDPiI03aKYP-uklQY-yeIfN8zowzgbZSfw0Vw29Y-DlQhcbigFXJQxMruQksGYWSUFxlvtsHvuNhSIsEV2w6TuXbBok_bf7myZ6cQspkjGiXbNSCpRafFQzlLb9J4FJgwpFCHdx1u4GjMTVDR7m0vPieByg1rcH5mC4u5_vsvwJUQSoK1HlN86kCQVVjcSfaj75SrNn8PMNqrP53zF6PYSizoo7oOBPe7l0Oyy1UyWrmwpWg7pEiCbraoBi-5Wv7SpRzblLOo_KJHDHSDhWdFx8Iz39yzhNE5fdCEMReZYhjbMR5ZDZii-2nwkqZpEEC-C8_xk2lVdpN2iV-A2hr2PZk2LbCfftXjB9xnO1hLSU5l7-rPsmL4gOAtEoK6zDzu4Jd6IctzRFIyfXgEXUf51cfO27kp9ObbcaeKxEiG08kQ1LR1ywYLo47JMQl84yyGZNnllpdxu8XVdx3YNFCOz4XwjMV-tOlVQd-33oQNpVKDpac9eAuO2XvbE524JCzeUjPyh75nJi0gAzobi29FseILpNZx1vDt65qRftNtOyUgY1fgsg6h7t24lVfN7UigLrprriHkhcgjg_bXZoLoE29aaLIh0bXI9pIUlYwbR7KLTx9HKy6URBGwY7tF4M6Nnhh3MYFLUgUhJdHeclAe7fy3VSHJO4Z1T_wCjx7izgYd6z_NmZtpM-wIOGbHmuz1mRbv4RPDlluksHq5rJuRPiVE_SD6go5rOE7pDIkvX2IRvV31bs5Xahjpb70dvAhat1V79sCeYOX5PFpbt-LYGqjPgwfwziIbhX6WsLNvVnqG4NxPoflQibUmYQq0JK2pupI9_vJmfoIwWjVEoPToxaqhv9GNlE2X9MYK9uM5IA3QzFmhwzxPLC5251nM0SpIFqZMqHBYFeFxggFjGRtLm421ffV5IL9ja6ibIcsT-qUohAMlP5b0xOHXH8DI1Q1OwYIMwbZIKc9BZksgJUz_]--></g></svg>